<?xml version="1.0" encoding="UTF-8"?>
<!DOCTYPE svg PUBLIC "-//W3C//DTD SVG 1.1//EN" "http://www.w3.org/Graphics/SVG/1.1/DTD/svg11.dtd">
<!-- Creator: CorelDRAW 2021 (64-Bit) -->
<svg xmlns="http://www.w3.org/2000/svg" xml:space="preserve" width="2.43408in" height="2.43408in" version="1.1" style="shape-rendering:geometricPrecision; text-rendering:geometricPrecision; image-rendering:optimizeQuality; fill-rule:evenodd; clip-rule:evenodd"
viewBox="0 0 1115.25 1115.25"
 xmlns:xlink="http://www.w3.org/1999/xlink"
 xmlns:xodm="http://www.corel.com/coreldraw/odm/2003">
 <defs>
  <style type="text/css">
   <![CDATA[
    .str2 {stroke:#373435;stroke-width:3.18;stroke-miterlimit:2.61313}
    .str0 {stroke:#653A81;stroke-width:3.05;stroke-linecap:round;stroke-linejoin:round;stroke-miterlimit:2.61313}
    .str6 {stroke:white;stroke-width:11.79;stroke-linecap:round;stroke-linejoin:round;stroke-miterlimit:2.61313}
    .str12 {stroke:white;stroke-width:11.79;stroke-linecap:round;stroke-linejoin:round;stroke-miterlimit:2.61313}
    .str5 {stroke:white;stroke-width:11.79;stroke-linecap:round;stroke-linejoin:round;stroke-miterlimit:2.61313}
    .str11 {stroke:white;stroke-width:11.79;stroke-linecap:round;stroke-linejoin:round;stroke-miterlimit:2.61313}
    .str7 {stroke:white;stroke-width:11.79;stroke-linecap:round;stroke-linejoin:round;stroke-miterlimit:2.61313}
    .str13 {stroke:white;stroke-width:11.79;stroke-linecap:round;stroke-linejoin:round;stroke-miterlimit:2.61313}
    .str3 {stroke:white;stroke-width:11.79;stroke-linecap:round;stroke-linejoin:round;stroke-miterlimit:2.61313}
    .str4 {stroke:white;stroke-width:11.79;stroke-linecap:round;stroke-linejoin:round;stroke-miterlimit:2.61313}
    .str1 {stroke:white;stroke-width:11.79;stroke-linecap:round;stroke-linejoin:round;stroke-miterlimit:2.61313}
    .str9 {stroke:white;stroke-width:11.79;stroke-linecap:round;stroke-linejoin:round;stroke-miterlimit:2.61313}
    .str8 {stroke:white;stroke-width:11.79;stroke-linecap:round;stroke-linejoin:round;stroke-miterlimit:2.61313}
    .str10 {stroke:white;stroke-width:11.79;stroke-linecap:round;stroke-linejoin:round;stroke-miterlimit:2.61313}
    .fil2 {fill:none}
    .fil20 {fill:#B2773C}
    .fil55 {fill:#8E4693}
    .fil0 {fill:#6A3C83}
    .fil24 {fill:#008CD0}
    .fil6 {fill:#560787}
    .fil5 {fill:#680B99}
    .fil19 {fill:#87E46F}
    .fil8 {fill:#A802B6}
    .fil27 {fill:#C40DBC}
    .fil10 {fill:#CC540D}
    .fil25 {fill:#CC9933}
    .fil3 {fill:#EB5105}
    .fil16 {fill:#EF5B03}
    .fil26 {fill:#FBC71F}
    .fil22 {fill:#FF9933}
    .fil1 {fill:white}
    .fil56 {fill:#FEFEFE;fill-rule:nonzero}
    .fil57 {fill:#653A81;fill-rule:nonzero}
    .fil54 {fill:white;fill-rule:nonzero}
    .fil33 {fill:black;fill-opacity:0.219608}
    .fil32 {fill:#F4BF22;fill-opacity:0.960784}
    .fil48 {fill:#B2773C}
    .fil14 {fill:#CC540D}
    .fil30 {fill:#FF6C00}
    .fil17 {fill:url(#id73)}
    .fil40 {fill:url(#id74)}
    .fil51 {fill:url(#id75)}
    .fil42 {fill:url(#id76)}
    .fil49 {fill:url(#id77)}
    .fil21 {fill:url(#id78)}
    .fil44 {fill:url(#id79)}
    .fil34 {fill:url(#id80)}
    .fil36 {fill:url(#id81)}
    .fil11 {fill:url(#id82)}
    .fil28 {fill:url(#id83)}
    .fil50 {fill:url(#id84)}
    .fil9 {fill:url(#id85)}
    .fil52 {fill:url(#id86)}
    .fil37 {fill:url(#id87)}
    .fil43 {fill:url(#id88)}
    .fil53 {fill:url(#id89)}
    .fil29 {fill:url(#id90)}
    .fil38 {fill:url(#id91)}
    .fil45 {fill:url(#id92)}
    .fil35 {fill:url(#id93)}
    .fil12 {fill:url(#id94)}
    .fil18 {fill:url(#id95)}
    .fil31 {fill:url(#id96)}
    .fil13 {fill:url(#id97)}
    .fil41 {fill:url(#id98)}
    .fil46 {fill:url(#id99)}
    .fil7 {fill:url(#id100)}
    .fil4 {fill:url(#id101)}
    .fil39 {fill:url(#id102)}
    .fil15 {fill:url(#id103)}
    .fil47 {fill:url(#id104)}
    .fil23 {fill:url(#id105)}
   ]]>
  </style>
   <clipPath id="id0">
    <path d="M557.62 37.07c287.49,0 520.55,233.06 520.55,520.55 0,287.49 -233.06,520.55 -520.55,520.55 -287.49,0 -520.55,-233.06 -520.55,-520.55 0,-287.49 233.06,-520.55 520.55,-520.55z"/>
   </clipPath>
    <clipPath id="id1">
     <path d="M557.62 37.07c194.74,0 364.48,106.96 453.75,265.31l0 510.48c-89.27,158.36 -259.01,265.31 -453.75,265.31 -194.74,0 -364.48,-106.96 -453.75,-265.31l0 -510.48c89.27,-158.36 259.01,-265.31 453.75,-265.31z"/>
    </clipPath>
    <clipPath id="id2">
     <path d="M557.62 37.07c287.49,0 520.55,233.06 520.55,520.55 0,287.49 -233.06,520.55 -520.55,520.55 -287.49,0 -520.55,-233.06 -520.55,-520.55 0,-287.49 233.06,-520.55 520.55,-520.55z"/>
    </clipPath>
    <clipPath id="id3">
     <path d="M341.96 226.49l461.6 0 0 574.08 -461.6 0 0 -574.08z"/>
    </clipPath>
    <clipPath id="id4">
     <path d="M493.42 672.21c86.87,-67.79 69.51,-64.93 140.79,-5.53 4.71,3.93 7.68,6.07 12.4,9.85l-18.91 31.97c-77.9,-78.1 -39.56,-75.37 -116.06,-2.39l-18.22 -33.9z"/>
    </clipPath>
    <clipPath id="id5">
     <path d="M650.54 292.03c2.44,6.78 1.53,15.9 -0.76,24.38 -5.54,20.6 -20.98,35.7 -37,35.7 -16.03,0 -24.78,-22.02 -20.21,-41.24 3.03,-12.77 10.37,-25.97 20.93,-31.62 11.97,-6.41 31.88,-1.57 37.04,12.78z"/>
    </clipPath>
     <clipPath id="id6">
      <path d="M645.16 328.41c-7.45,12.3 -18.81,20.3 -30.47,20.3 -16.03,0 -24.78,-22.02 -20.21,-41.24 1.15,-4.86 2.93,-9.78 5.27,-14.32 3.6,-5.94 8.24,-10.95 13.75,-13.9 11.97,-6.41 31.88,-1.57 37.04,12.78 2.44,6.78 1.53,15.9 -0.76,24.38 -1.15,4.26 -2.72,8.29 -4.63,12z"/>
     </clipPath>
       <mask id="id7">
  <linearGradient id="id8" gradientUnits="userSpaceOnUse" x1="624.47" y1="265.5" x2="624.75" y2="309.31">
   <stop offset="0" style="stop-opacity:1; stop-color:white"/>
   <stop offset="1" style="stop-opacity:0; stop-color:white"/>
  </linearGradient>
        <rect style="fill:url(#id8)" x="569.91" y="269.41" width="112.94" height="44.61"/>
       </mask>
     <clipPath id="id9">
      <path d="M650.54 292.03c2.44,6.78 1.53,15.9 -0.76,24.38 -5.54,20.6 -20.98,35.7 -37,35.7 -16.03,0 -24.78,-22.02 -20.21,-41.24 3.03,-12.77 10.37,-25.97 20.93,-31.62 11.97,-6.41 31.88,-1.57 37.04,12.78z"/>
     </clipPath>
    <clipPath id="id10">
     <path d="M698.16 327.05c-5.12,30.4 -40.63,31.66 -40.63,-0.08 0,-20.79 18.76,-34.39 30.31,-31.39 9.2,2.38 12.63,17.79 10.32,31.48z"/>
    </clipPath>
     <clipPath id="id11">
     </clipPath>
     <clipPath id="id12">
      <path d="M698.16 327.05c-5.12,30.4 -40.63,31.66 -40.63,-0.08 0,-20.79 18.76,-34.39 30.31,-31.39 9.2,2.38 12.63,17.79 10.32,31.48z"/>
     </clipPath>
    <clipPath id="id13">
     <path d="M724.32 327.17c14.28,1.87 14.78,13.69 12.1,24.21 -2.68,10.52 -11.6,16.22 -19.97,16.22 -23.61,-0 -18.14,-43.83 7.86,-40.42z"/>
    </clipPath>
    <clipPath id="id14">
     <path d="M753.63 357.57c9.96,1.74 10.41,12.59 7.91,18.68 -2.5,6.09 -9.75,10.8 -15.27,10.58 -15.92,-0.63 -11.14,-32.49 7.35,-29.26z"/>
    </clipPath>
     <clipPath id="id15">
     </clipPath>
     <clipPath id="id16">
      <path d="M753.63 357.57c9.96,1.74 10.41,12.59 7.91,18.68 -2.5,6.09 -9.75,10.8 -15.27,10.58 -15.92,-0.63 -11.14,-32.49 7.35,-29.26z"/>
     </clipPath>
    <clipPath id="id17">
     <path d="M776.12 388.72c9.52,1.07 9.87,11.93 7.5,17.7 -2.37,5.77 -8.75,9.92 -13.98,9.78 -16.36,-0.43 -11.38,-29.48 6.48,-27.49z"/>
    </clipPath>
    <clipPath id="id18">
     <path d="M629.24 367.76c62.47,-11.26 152.64,64.57 138.42,135.81 -8.77,32.15 -19.31,47.58 -33.62,74.64 -17.07,30.42 -17.64,52.91 -24.78,84.67 -4.89,35.63 -7.42,61.25 -24.39,89.42 -8.25,13.69 -17.24,21.42 -32.35,26.66 -14.04,4.87 -29.01,4.13 -42.74,-3.85 -9.26,-5.38 -17.46,-12.73 -21.15,-25.45 -20.57,-70.92 41.39,-89.59 56.29,-138.78 41.67,-137.52 -51.78,-96.95 -62.85,-144.24 -9.42,-40.25 3.1,-87.77 47.17,-98.89zm52.85 104.7c27.17,-4.9 66.39,28.08 60.2,59.07 -3.82,13.98 -8.4,20.69 -14.62,32.46 -7.42,13.23 -7.67,23.02 -10.78,36.83 -2.13,15.5 -3.23,26.64 -10.61,38.89 -3.59,5.96 -7.5,9.32 -14.07,11.6 -6.11,2.12 -12.62,1.79 -18.59,-1.67 -4.03,-2.34 -7.59,-5.54 -9.2,-11.07 -8.95,-30.85 12.15,-41.72 24.48,-60.36 8.8,-13.3 24.39,-38.75 1.68,-50.3 -6.74,-3.43 -15.6,2.55 -20.1,0.7 -4.99,-2.05 -8.29,-6.47 -9.65,-12.24 -4.77,-18.15 1.47,-38.92 21.24,-43.91zm5.85 -32.27c1.23,2.88 1.07,6.86 0.3,10.61 -1.87,9.09 -8.18,16.04 -15.14,16.46 -6.96,0.41 -11.33,-8.92 -9.84,-17.38 0.99,-5.62 3.83,-11.54 8.27,-14.27 5.03,-3.09 13.8,-1.51 16.42,4.59zm21.58 13.97c-1.44,13.33 -16.82,14.8 -17.64,1.02 -0.54,-9.03 7.26,-15.42 12.35,-14.42 4.06,0.8 5.94,7.4 5.3,13.4zm11.36 -0.62c6.25,0.44 6.77,5.56 5.88,10.2 -0.89,4.64 -4.61,7.34 -8.25,7.56 -10.25,0.61 -9.01,-18.56 2.37,-17.76zm13.51 12.44c4.37,0.5 4.85,5.2 3.92,7.9 -0.93,2.71 -3.95,4.94 -6.35,4.99 -6.93,0.14 -5.68,-13.82 2.44,-12.89zm10.57 12.94c4.16,0.22 4.59,4.92 3.71,7.49 -0.88,2.57 -3.54,4.53 -5.82,4.61 -7.11,0.24 -5.7,-12.51 2.1,-12.1z"/>
    </clipPath>
      <mask id="id19">
  <linearGradient id="id20" gradientUnits="userSpaceOnUse" x1="610.25" y1="457.29" x2="320.93" y2="457.29">
   <stop offset="0" style="stop-opacity:0; stop-color:white"/>
   <stop offset="0.721569" style="stop-opacity:0.501961; stop-color:white"/>
   <stop offset="1" style="stop-opacity:1; stop-color:white"/>
  </linearGradient>
       <rect style="fill:url(#id20)" x="439.59" y="329.79" width="213.27" height="223.88"/>
      </mask>
     <clipPath id="id21">
      <path d="M579.24 436.49c36.14,6.5 61.68,31.67 80.71,60.9 -1.08,6.13 -0.75,12.71 0.9,18.98 1.36,5.78 4.66,10.19 9.65,12.24 1.75,0.72 4.16,0.25 6.85,-0.38 6.9,13.9 12.73,27.61 17.88,39.71 -2.11,3.82 -4.38,7.34 -6.31,10.27 -12.33,18.65 -33.43,29.52 -24.48,60.36 1.6,5.53 5.17,8.73 9.2,11.07 5.97,3.47 12.48,3.79 18.59,1.67 6.57,-2.28 10.48,-5.64 14.07,-11.6 6.25,-10.38 8,-19.96 9.68,-32.07 1.54,1.39 3.07,2.2 4.61,2.36 -4.96,16.8 -6.85,33.03 -11.32,52.87 -2.22,16.15 -3.95,30.24 -6.76,43.44 -28.7,24.85 -74.61,8.76 -106.96,-22.45 14.87,-25.18 40.49,-43.66 49.38,-72.99 41.67,-137.52 -51.78,-96.95 -62.85,-144.24 -2.3,-9.83 -3.29,-20.1 -2.83,-30.16z"/>
     </clipPath>
     <clipPath id="id22">
      <path d="M629.24 367.76c62.47,-11.26 152.64,64.57 138.42,135.81 -8.77,32.15 -19.31,47.58 -33.62,74.64 -17.07,30.42 -17.64,52.91 -24.78,84.67 -4.89,35.63 -7.42,61.25 -24.39,89.42 -8.25,13.69 -17.24,21.42 -32.35,26.66 -14.04,4.87 -29.01,4.13 -42.74,-3.85 -9.26,-5.38 -17.46,-12.73 -21.15,-25.45 -20.57,-70.92 41.39,-89.59 56.29,-138.78 41.67,-137.52 -51.78,-96.95 -62.85,-144.24 -9.42,-40.25 3.1,-87.77 47.17,-98.89zm52.85 104.7c27.17,-4.9 66.39,28.08 60.2,59.07 -3.82,13.98 -8.4,20.69 -14.62,32.46 -7.42,13.23 -7.67,23.02 -10.78,36.83 -2.13,15.5 -3.23,26.64 -10.61,38.89 -3.59,5.96 -7.5,9.32 -14.07,11.6 -6.11,2.12 -12.62,1.79 -18.59,-1.67 -4.03,-2.34 -7.59,-5.54 -9.2,-11.07 -8.95,-30.85 12.15,-41.72 24.48,-60.36 8.8,-13.3 24.39,-38.75 1.68,-50.3 -6.74,-3.43 -15.6,2.55 -20.1,0.7 -4.99,-2.05 -8.29,-6.47 -9.65,-12.24 -4.77,-18.15 1.47,-38.92 21.24,-43.91zm5.85 -32.27c1.23,2.88 1.07,6.86 0.3,10.61 -1.87,9.09 -8.18,16.04 -15.14,16.46 -6.96,0.41 -11.33,-8.92 -9.84,-17.38 0.99,-5.62 3.83,-11.54 8.27,-14.27 5.03,-3.09 13.8,-1.51 16.42,4.59zm21.58 13.97c-1.44,13.33 -16.82,14.8 -17.64,1.02 -0.54,-9.03 7.26,-15.42 12.35,-14.42 4.06,0.8 5.94,7.4 5.3,13.4zm11.36 -0.62c6.25,0.44 6.77,5.56 5.88,10.2 -0.89,4.64 -4.61,7.34 -8.25,7.56 -10.25,0.61 -9.01,-18.56 2.37,-17.76zm13.51 12.44c4.37,0.5 4.85,5.2 3.92,7.9 -0.93,2.71 -3.95,4.94 -6.35,4.99 -6.93,0.14 -5.68,-13.82 2.44,-12.89zm10.57 12.94c4.16,0.22 4.59,4.92 3.71,7.49 -0.88,2.57 -3.54,4.53 -5.82,4.61 -7.11,0.24 -5.7,-12.51 2.1,-12.1z"/>
     </clipPath>
     <clipPath id="id23">
      <path d="M631.78 636.8c26.28,21.26 50.2,34.9 71.18,67.27 -3.4,16.82 -8.38,32.11 -18.1,48.24 -4.91,8.15 -10.09,14.19 -16.66,18.84 -23.64,-20.75 -57.35,-31.91 -83.68,-46.21 -1.11,-39.94 28.07,-60.74 47.26,-88.14z"/>
     </clipPath>
     <clipPath id="id24">
      <path d="M629.24 367.76c62.47,-11.26 152.64,64.57 138.42,135.81 -8.77,32.15 -19.31,47.58 -33.62,74.64 -17.07,30.42 -17.64,52.91 -24.78,84.67 -4.89,35.63 -7.42,61.25 -24.39,89.42 -8.25,13.69 -17.24,21.42 -32.35,26.66 -14.04,4.87 -29.01,4.13 -42.74,-3.85 -9.26,-5.38 -17.46,-12.73 -21.15,-25.45 -20.57,-70.92 41.39,-89.59 56.29,-138.78 41.67,-137.52 -51.78,-96.95 -62.85,-144.24 -9.42,-40.25 3.1,-87.77 47.17,-98.89zm52.85 104.7c27.17,-4.9 66.39,28.08 60.2,59.07 -3.82,13.98 -8.4,20.69 -14.62,32.46 -7.42,13.23 -7.67,23.02 -10.78,36.83 -2.13,15.5 -3.23,26.64 -10.61,38.89 -3.59,5.96 -7.5,9.32 -14.07,11.6 -6.11,2.12 -12.62,1.79 -18.59,-1.67 -4.03,-2.34 -7.59,-5.54 -9.2,-11.07 -8.95,-30.85 12.15,-41.72 24.48,-60.36 8.8,-13.3 24.39,-38.75 1.68,-50.3 -6.74,-3.43 -15.6,2.55 -20.1,0.7 -4.99,-2.05 -8.29,-6.47 -9.65,-12.24 -4.77,-18.15 1.47,-38.92 21.24,-43.91zm5.85 -32.27c1.23,2.88 1.07,6.86 0.3,10.61 -1.87,9.09 -8.18,16.04 -15.14,16.46 -6.96,0.41 -11.33,-8.92 -9.84,-17.38 0.99,-5.62 3.83,-11.54 8.27,-14.27 5.03,-3.09 13.8,-1.51 16.42,4.59zm21.58 13.97c-1.44,13.33 -16.82,14.8 -17.64,1.02 -0.54,-9.03 7.26,-15.42 12.35,-14.42 4.06,0.8 5.94,7.4 5.3,13.4zm11.36 -0.62c6.25,0.44 6.77,5.56 5.88,10.2 -0.89,4.64 -4.61,7.34 -8.25,7.56 -10.25,0.61 -9.01,-18.56 2.37,-17.76zm13.51 12.44c4.37,0.5 4.85,5.2 3.92,7.9 -0.93,2.71 -3.95,4.94 -6.35,4.99 -6.93,0.14 -5.68,-13.82 2.44,-12.89zm10.57 12.94c4.16,0.22 4.59,4.92 3.71,7.49 -0.88,2.57 -3.54,4.53 -5.82,4.61 -7.11,0.24 -5.7,-12.51 2.1,-12.1z"/>
     </clipPath>
     <clipPath id="id25">
      <path d="M478.39 244.34c-2.44,6.78 -1.53,15.9 0.76,24.38 5.54,20.6 20.98,35.7 37,35.7 16.03,0 24.78,-22.02 20.21,-41.24 -3.03,-12.77 -10.37,-25.97 -20.93,-31.62 -11.97,-6.41 -31.88,-1.57 -37.04,12.78z"/>
     </clipPath>
      <clipPath id="id26">
       <path d="M483.78 280.73c7.45,12.29 18.8,20.29 30.46,20.29 16.02,0 24.78,-22.03 20.21,-41.24 -1.15,-4.86 -2.93,-9.79 -5.28,-14.33 -3.6,-5.93 -8.24,-10.94 -13.75,-13.89 -11.97,-6.41 -31.88,-1.57 -37.04,12.78 -2.44,6.78 -1.53,15.9 0.76,24.38 1.15,4.27 2.72,8.3 4.64,12.01z"/>
      </clipPath>
        <mask id="id27">
  <linearGradient id="id28" gradientUnits="userSpaceOnUse" x1="504.45" y1="217.8" x2="504.18" y2="261.61">
   <stop offset="0" style="stop-opacity:1; stop-color:white"/>
   <stop offset="1" style="stop-opacity:0; stop-color:white"/>
  </linearGradient>
         <rect style="fill:url(#id28)" x="446.08" y="221.71" width="112.94" height="44.61"/>
        </mask>
      <clipPath id="id29">
       <path d="M478.39 244.34c-2.44,6.78 -1.53,15.9 0.76,24.38 5.54,20.6 20.98,35.7 37,35.7 16.03,0 24.78,-22.02 20.21,-41.24 -3.03,-12.77 -10.37,-25.97 -20.93,-31.62 -11.97,-6.41 -31.88,-1.57 -37.04,12.78z"/>
      </clipPath>
     <clipPath id="id30">
      <path d="M430.77 279.35c5.12,30.4 40.63,31.66 40.63,-0.08 0,-20.79 -18.76,-34.39 -30.31,-31.39 -9.2,2.38 -12.63,17.79 -10.32,31.48z"/>
     </clipPath>
      <clipPath id="id31">
      </clipPath>
      <clipPath id="id32">
       <path d="M430.77 279.35c5.12,30.4 40.63,31.66 40.63,-0.08 0,-20.79 -18.76,-34.39 -30.31,-31.39 -9.2,2.38 -12.63,17.79 -10.32,31.48z"/>
      </clipPath>
     <clipPath id="id33">
      <path d="M404.6 279.47c-14.28,1.87 -14.78,13.69 -12.1,24.21 2.68,10.52 11.6,16.22 19.97,16.22 23.61,-0 18.14,-43.83 -7.86,-40.42z"/>
     </clipPath>
     <clipPath id="id34">
      <path d="M375.3 309.88c-9.96,1.74 -10.41,12.59 -7.91,18.68 2.5,6.09 9.75,10.8 15.27,10.58 15.92,-0.63 11.14,-32.49 -7.35,-29.26z"/>
     </clipPath>
      <clipPath id="id35">
      </clipPath>
      <clipPath id="id36">
       <path d="M375.3 309.88c-9.96,1.74 -10.41,12.59 -7.91,18.68 2.5,6.09 9.75,10.8 15.27,10.58 15.92,-0.63 11.14,-32.49 -7.35,-29.26z"/>
      </clipPath>
     <clipPath id="id37">
      <path d="M352.81 341.02c-9.52,1.07 -9.87,11.93 -7.5,17.7 2.37,5.77 8.75,9.92 13.98,9.78 16.35,-0.43 11.38,-29.48 -6.48,-27.49z"/>
     </clipPath>
     <clipPath id="id38">
      <path d="M499.69 320.06c-62.47,-11.26 -152.64,64.57 -138.42,135.81 8.77,32.15 19.31,47.58 33.62,74.64 17.07,30.42 17.64,52.91 24.78,84.67 4.89,35.63 7.42,61.25 24.39,89.42 8.25,13.69 17.24,21.42 32.35,26.66 14.04,4.87 29.01,4.13 42.74,-3.85 9.26,-5.38 17.46,-12.73 21.15,-25.45 20.57,-70.92 -41.39,-89.59 -56.29,-138.78 -41.67,-137.52 51.78,-96.95 62.85,-144.24 9.42,-40.25 -3.1,-87.77 -47.17,-98.89zm-52.85 104.69c-27.17,-4.9 -66.39,28.08 -60.21,59.07 3.82,13.98 8.4,20.69 14.62,32.46 7.42,13.23 7.67,23.02 10.78,36.83 2.13,15.5 3.23,26.64 10.61,38.89 3.59,5.96 7.5,9.32 14.07,11.6 6.11,2.12 12.62,1.79 18.59,-1.67 4.03,-2.34 7.59,-5.54 9.2,-11.07 8.95,-30.85 -12.15,-41.72 -24.49,-60.36 -8.8,-13.3 -24.39,-38.75 -1.68,-50.3 6.74,-3.43 15.6,2.55 20.1,0.7 4.99,-2.05 8.29,-6.47 9.65,-12.24 4.77,-18.15 -1.47,-38.92 -21.24,-43.91zm-5.86 -32.27c-1.23,2.88 -1.07,6.86 -0.3,10.61 1.87,9.09 8.18,16.04 15.14,16.46 6.96,0.41 11.33,-8.92 9.84,-17.38 -0.99,-5.62 -3.83,-11.54 -8.27,-14.27 -5.03,-3.09 -13.8,-1.51 -16.42,4.59zm-21.58 13.97c1.44,13.33 16.82,14.8 17.64,1.02 0.54,-9.03 -7.26,-15.42 -12.35,-14.42 -4.06,0.8 -5.94,7.4 -5.3,13.4zm-11.36 -0.62c-6.25,0.44 -6.77,5.56 -5.88,10.2 0.89,4.64 4.62,7.34 8.25,7.56 10.25,0.61 9.01,-18.56 -2.37,-17.76zm-13.51 12.44c-4.37,0.5 -4.85,5.2 -3.92,7.9 0.93,2.71 3.95,4.94 6.35,4.99 6.93,0.14 5.68,-13.82 -2.44,-12.89zm-10.57 12.94c-4.16,0.22 -4.59,4.92 -3.71,7.49 0.88,2.57 3.54,4.53 5.82,4.61 7.11,0.24 5.7,-12.51 -2.1,-12.1z"/>
     </clipPath>
       <mask id="id39">
  <linearGradient id="id40" gradientUnits="userSpaceOnUse" x1="518.68" y1="409.59" x2="808" y2="409.59">
   <stop offset="0" style="stop-opacity:0; stop-color:white"/>
   <stop offset="0.721569" style="stop-opacity:0.501961; stop-color:white"/>
   <stop offset="1" style="stop-opacity:1; stop-color:white"/>
  </linearGradient>
        <rect style="fill:url(#id40)" x="476.06" y="282.09" width="213.27" height="223.89"/>
       </mask>
      <clipPath id="id41">
       <path d="M549.69 388.79c-36.14,6.5 -61.69,31.67 -80.71,60.9 1.08,6.13 0.75,12.72 -0.9,18.98 -1.36,5.78 -4.66,10.19 -9.65,12.24 -1.75,0.72 -4.16,0.25 -6.85,-0.38 -6.9,13.9 -12.73,27.61 -17.88,39.71 2.11,3.83 4.38,7.34 6.31,10.27 12.33,18.65 33.43,29.52 24.49,60.36 -1.61,5.53 -5.17,8.73 -9.2,11.07 -5.97,3.47 -12.48,3.79 -18.59,1.67 -6.57,-2.28 -10.48,-5.64 -14.07,-11.6 -6.25,-10.38 -8,-19.96 -9.68,-32.07 -1.54,1.39 -3.07,2.2 -4.61,2.36 4.96,16.8 6.85,33.03 11.32,52.87 2.22,16.15 3.95,30.24 6.76,43.44 28.7,24.85 74.61,8.76 106.96,-22.45 -14.87,-25.18 -40.49,-43.66 -49.38,-72.99 -41.67,-137.52 51.78,-96.95 62.85,-144.24 2.3,-9.83 3.29,-20.1 2.83,-30.16z"/>
      </clipPath>
      <clipPath id="id42">
       <path d="M499.69 320.06c-62.47,-11.26 -152.64,64.57 -138.42,135.81 8.77,32.15 19.31,47.58 33.62,74.64 17.07,30.42 17.64,52.91 24.78,84.67 4.89,35.63 7.42,61.25 24.39,89.42 8.25,13.69 17.24,21.42 32.35,26.66 14.04,4.87 29.01,4.13 42.74,-3.85 9.26,-5.38 17.46,-12.73 21.15,-25.45 20.57,-70.92 -41.39,-89.59 -56.29,-138.78 -41.67,-137.52 51.78,-96.95 62.85,-144.24 9.42,-40.25 -3.1,-87.77 -47.17,-98.89zm-52.85 104.69c-27.17,-4.9 -66.39,28.08 -60.21,59.07 3.82,13.98 8.4,20.69 14.62,32.46 7.42,13.23 7.67,23.02 10.78,36.83 2.13,15.5 3.23,26.64 10.61,38.89 3.59,5.96 7.5,9.32 14.07,11.6 6.11,2.12 12.62,1.79 18.59,-1.67 4.03,-2.34 7.59,-5.54 9.2,-11.07 8.95,-30.85 -12.15,-41.72 -24.49,-60.36 -8.8,-13.3 -24.39,-38.75 -1.68,-50.3 6.74,-3.43 15.6,2.55 20.1,0.7 4.99,-2.05 8.29,-6.47 9.65,-12.24 4.77,-18.15 -1.47,-38.92 -21.24,-43.91zm-5.86 -32.27c-1.23,2.88 -1.07,6.86 -0.3,10.61 1.87,9.09 8.18,16.04 15.14,16.46 6.96,0.41 11.33,-8.92 9.84,-17.38 -0.99,-5.62 -3.83,-11.54 -8.27,-14.27 -5.03,-3.09 -13.8,-1.51 -16.42,4.59zm-21.58 13.97c1.44,13.33 16.82,14.8 17.64,1.02 0.54,-9.03 -7.26,-15.42 -12.35,-14.42 -4.06,0.8 -5.94,7.4 -5.3,13.4zm-11.36 -0.62c-6.25,0.44 -6.77,5.56 -5.88,10.2 0.89,4.64 4.62,7.34 8.25,7.56 10.25,0.61 9.01,-18.56 -2.37,-17.76zm-13.51 12.44c-4.37,0.5 -4.85,5.2 -3.92,7.9 0.93,2.71 3.95,4.94 6.35,4.99 6.93,0.14 5.68,-13.82 -2.44,-12.89zm-10.57 12.94c-4.16,0.22 -4.59,4.92 -3.71,7.49 0.88,2.57 3.54,4.53 5.82,4.61 7.11,0.24 5.7,-12.51 -2.1,-12.1z"/>
      </clipPath>
      <clipPath id="id43">
      </clipPath>
      <clipPath id="id44">
       <path d="M499.69 320.06c-62.47,-11.26 -152.64,64.57 -138.42,135.81 8.77,32.15 19.31,47.58 33.62,74.64 17.07,30.42 17.64,52.91 24.78,84.67 4.89,35.63 7.42,61.25 24.39,89.42 8.25,13.69 17.24,21.42 32.35,26.66 14.04,4.87 29.01,4.13 42.74,-3.85 9.26,-5.38 17.46,-12.73 21.15,-25.45 20.57,-70.92 -41.39,-89.59 -56.29,-138.78 -41.67,-137.52 51.78,-96.95 62.85,-144.24 9.42,-40.25 -3.1,-87.77 -47.17,-98.89zm-52.85 104.69c-27.17,-4.9 -66.39,28.08 -60.21,59.07 3.82,13.98 8.4,20.69 14.62,32.46 7.42,13.23 7.67,23.02 10.78,36.83 2.13,15.5 3.23,26.64 10.61,38.89 3.59,5.96 7.5,9.32 14.07,11.6 6.11,2.12 12.62,1.79 18.59,-1.67 4.03,-2.34 7.59,-5.54 9.2,-11.07 8.95,-30.85 -12.15,-41.72 -24.49,-60.36 -8.8,-13.3 -24.39,-38.75 -1.68,-50.3 6.74,-3.43 15.6,2.55 20.1,0.7 4.99,-2.05 8.29,-6.47 9.65,-12.24 4.77,-18.15 -1.47,-38.92 -21.24,-43.91zm-5.86 -32.27c-1.23,2.88 -1.07,6.86 -0.3,10.61 1.87,9.09 8.18,16.04 15.14,16.46 6.96,0.41 11.33,-8.92 9.84,-17.38 -0.99,-5.62 -3.83,-11.54 -8.27,-14.27 -5.03,-3.09 -13.8,-1.51 -16.42,4.59zm-21.58 13.97c1.44,13.33 16.82,14.8 17.64,1.02 0.54,-9.03 -7.26,-15.42 -12.35,-14.42 -4.06,0.8 -5.94,7.4 -5.3,13.4zm-11.36 -0.62c-6.25,0.44 -6.77,5.56 -5.88,10.2 0.89,4.64 4.62,7.34 8.25,7.56 10.25,0.61 9.01,-18.56 -2.37,-17.76zm-13.51 12.44c-4.37,0.5 -4.85,5.2 -3.92,7.9 0.93,2.71 3.95,4.94 6.35,4.99 6.93,0.14 5.68,-13.82 -2.44,-12.89zm-10.57 12.94c-4.16,0.22 -4.59,4.92 -3.71,7.49 0.88,2.57 3.54,4.53 5.82,4.61 7.11,0.24 5.7,-12.51 -2.1,-12.1z"/>
      </clipPath>
      <clipPath id="id45">
      </clipPath>
      <clipPath id="id46">
       <path d="M499.69 320.06c-62.47,-11.26 -152.64,64.57 -138.42,135.81 8.77,32.15 19.31,47.58 33.62,74.64 17.07,30.42 17.64,52.91 24.78,84.67 4.89,35.63 7.42,61.25 24.39,89.42 8.25,13.69 17.24,21.42 32.35,26.66 14.04,4.87 29.01,4.13 42.74,-3.85 9.26,-5.38 17.46,-12.73 21.15,-25.45 20.57,-70.92 -41.39,-89.59 -56.29,-138.78 -41.67,-137.52 51.78,-96.95 62.85,-144.24 9.42,-40.25 -3.1,-87.77 -47.17,-98.89zm-52.85 104.69c-27.17,-4.9 -66.39,28.08 -60.21,59.07 3.82,13.98 8.4,20.69 14.62,32.46 7.42,13.23 7.67,23.02 10.78,36.83 2.13,15.5 3.23,26.64 10.61,38.89 3.59,5.96 7.5,9.32 14.07,11.6 6.11,2.12 12.62,1.79 18.59,-1.67 4.03,-2.34 7.59,-5.54 9.2,-11.07 8.95,-30.85 -12.15,-41.72 -24.49,-60.36 -8.8,-13.3 -24.39,-38.75 -1.68,-50.3 6.74,-3.43 15.6,2.55 20.1,0.7 4.99,-2.05 8.29,-6.47 9.65,-12.24 4.77,-18.15 -1.47,-38.92 -21.24,-43.91zm-5.86 -32.27c-1.23,2.88 -1.07,6.86 -0.3,10.61 1.87,9.09 8.18,16.04 15.14,16.46 6.96,0.41 11.33,-8.92 9.84,-17.38 -0.99,-5.62 -3.83,-11.54 -8.27,-14.27 -5.03,-3.09 -13.8,-1.51 -16.42,4.59zm-21.58 13.97c1.44,13.33 16.82,14.8 17.64,1.02 0.54,-9.03 -7.26,-15.42 -12.35,-14.42 -4.06,0.8 -5.94,7.4 -5.3,13.4zm-11.36 -0.62c-6.25,0.44 -6.77,5.56 -5.88,10.2 0.89,4.64 4.62,7.34 8.25,7.56 10.25,0.61 9.01,-18.56 -2.37,-17.76zm-13.51 12.44c-4.37,0.5 -4.85,5.2 -3.92,7.9 0.93,2.71 3.95,4.94 6.35,4.99 6.93,0.14 5.68,-13.82 -2.44,-12.89zm-10.57 12.94c-4.16,0.22 -4.59,4.92 -3.71,7.49 0.88,2.57 3.54,4.53 5.82,4.61 7.11,0.24 5.7,-12.51 -2.1,-12.1z"/>
      </clipPath>
      <clipPath id="id47">
       <path d="M497.15 589.1c-26.28,21.27 -50.2,34.9 -71.18,67.27 3.4,16.82 8.38,32.11 18.1,48.24 4.91,8.15 10.09,14.19 16.66,18.84 23.64,-20.75 57.35,-31.92 83.68,-46.21 1.11,-39.94 -28.07,-60.74 -47.26,-88.14z"/>
      </clipPath>
      <clipPath id="id48">
       <path d="M499.69 320.06c-62.47,-11.26 -152.64,64.57 -138.42,135.81 8.77,32.15 19.31,47.58 33.62,74.64 17.07,30.42 17.64,52.91 24.78,84.67 4.89,35.63 7.42,61.25 24.39,89.42 8.25,13.69 17.24,21.42 32.35,26.66 14.04,4.87 29.01,4.13 42.74,-3.85 9.26,-5.38 17.46,-12.73 21.15,-25.45 20.57,-70.92 -41.39,-89.59 -56.29,-138.78 -41.67,-137.52 51.78,-96.95 62.85,-144.24 9.42,-40.25 -3.1,-87.77 -47.17,-98.89zm-52.85 104.69c-27.17,-4.9 -66.39,28.08 -60.21,59.07 3.82,13.98 8.4,20.69 14.62,32.46 7.42,13.23 7.67,23.02 10.78,36.83 2.13,15.5 3.23,26.64 10.61,38.89 3.59,5.96 7.5,9.32 14.07,11.6 6.11,2.12 12.62,1.79 18.59,-1.67 4.03,-2.34 7.59,-5.54 9.2,-11.07 8.95,-30.85 -12.15,-41.72 -24.49,-60.36 -8.8,-13.3 -24.39,-38.75 -1.68,-50.3 6.74,-3.43 15.6,2.55 20.1,0.7 4.99,-2.05 8.29,-6.47 9.65,-12.24 4.77,-18.15 -1.47,-38.92 -21.24,-43.91zm-5.86 -32.27c-1.23,2.88 -1.07,6.86 -0.3,10.61 1.87,9.09 8.18,16.04 15.14,16.46 6.96,0.41 11.33,-8.92 9.84,-17.38 -0.99,-5.62 -3.83,-11.54 -8.27,-14.27 -5.03,-3.09 -13.8,-1.51 -16.42,4.59zm-21.58 13.97c1.44,13.33 16.82,14.8 17.64,1.02 0.54,-9.03 -7.26,-15.42 -12.35,-14.42 -4.06,0.8 -5.94,7.4 -5.3,13.4zm-11.36 -0.62c-6.25,0.44 -6.77,5.56 -5.88,10.2 0.89,4.64 4.62,7.34 8.25,7.56 10.25,0.61 9.01,-18.56 -2.37,-17.76zm-13.51 12.44c-4.37,0.5 -4.85,5.2 -3.92,7.9 0.93,2.71 3.95,4.94 6.35,4.99 6.93,0.14 5.68,-13.82 -2.44,-12.89zm-10.57 12.94c-4.16,0.22 -4.59,4.92 -3.71,7.49 0.88,2.57 3.54,4.53 5.82,4.61 7.11,0.24 5.7,-12.51 -2.1,-12.1z"/>
      </clipPath>
    <clipPath id="id49">
     <path d="M790.16 314.92l186.66 0 0 505.98 -186.66 0 0 -505.98z"/>
    </clipPath>
   <clipPath id="id50">
    <path d="M806.68 313.6l150.84 56.97 0 0.05 0 44.97 0 0.05 0.02 338.86 0 45.02 -171.15 -65.29 -0 -45.02 -0 -80.03 65.36 -24.62 0.01 116.41 40.42 15.42 0 -0.05 11.76 4.6 -11.76 -17.68 -0.01 -301.75 0 -0.05 -85.48 -32.03 -0 -41.41 -12.15 -19.02 12.16 4.62 0 0z"/>
   </clipPath>
     <mask id="id51">
  <linearGradient id="id52" gradientUnits="userSpaceOnUse" x1="874.97" y1="307.38" x2="877.26" y2="392.6">
   <stop offset="0" style="stop-opacity:1; stop-color:white"/>
   <stop offset="1" style="stop-opacity:0; stop-color:white"/>
  </linearGradient>
      <rect style="fill:url(#id52)" x="771.46" y="305.76" width="228.1" height="91.64"/>
     </mask>
     <mask id="id53">
  <linearGradient id="id54" gradientUnits="userSpaceOnUse" x1="874.97" y1="408.49" x2="877.26" y2="493.71">
   <stop offset="0" style="stop-opacity:1; stop-color:white"/>
   <stop offset="1" style="stop-opacity:0; stop-color:white"/>
  </linearGradient>
      <rect style="fill:url(#id54)" x="771.46" y="406.88" width="228.1" height="91.64"/>
     </mask>
     <mask id="id55">
  <linearGradient id="id56" gradientUnits="userSpaceOnUse" x1="874.97" y1="509.61" x2="877.26" y2="594.83">
   <stop offset="0" style="stop-opacity:1; stop-color:white"/>
   <stop offset="1" style="stop-opacity:0; stop-color:white"/>
  </linearGradient>
      <rect style="fill:url(#id56)" x="771.46" y="508" width="228.1" height="91.64"/>
     </mask>
     <mask id="id57">
  <linearGradient id="id58" gradientUnits="userSpaceOnUse" x1="874.97" y1="610.73" x2="877.26" y2="695.95">
   <stop offset="0" style="stop-opacity:1; stop-color:white"/>
   <stop offset="1" style="stop-opacity:0; stop-color:white"/>
  </linearGradient>
      <rect style="fill:url(#id58)" x="771.46" y="609.11" width="228.1" height="91.64"/>
     </mask>
     <mask id="id59">
  <linearGradient id="id60" gradientUnits="userSpaceOnUse" x1="874.97" y1="711.85" x2="877.26" y2="797.07">
   <stop offset="0" style="stop-opacity:1; stop-color:white"/>
   <stop offset="1" style="stop-opacity:0; stop-color:white"/>
  </linearGradient>
      <rect style="fill:url(#id60)" x="771.46" y="710.23" width="228.1" height="91.64"/>
     </mask>
    <clipPath id="id61">
     <path d="M138.43 304.08l218.67 0 0 509.35 -218.67 0 0 -509.35z"/>
    </clipPath>
   <clipPath id="id62">
    <path d="M341.02 728.32l-186.62 71.26 -0 -45.02 -0.01 -130.15 -0 -46.88 121.24 -45.8 -15.92 -5.47 -0.01 -137.64 -54.75 20.96 15.95 5.48 0 72.63 -66.52 23.11 0 -17.96 -0.01 -76.4 0 -33.45 -15.89 -5.46 186.58 -71.22 0.01 206.92 0 44.73 0 2.15 -56.54 21.3 -47.63 17.94 0 65.87 0 50.06 54.75 -20.94 -15.94 -5.48 -0 -38.03 65.36 -24.25 0 62.87 0 33.4 15.94 5.48z"/>
   </clipPath>
     <mask id="id63">
  <linearGradient id="id64" gradientUnits="userSpaceOnUse" x1="226.15" y1="306.24" x2="228.42" y2="391.14">
   <stop offset="0" style="stop-opacity:1; stop-color:white"/>
   <stop offset="1" style="stop-opacity:0; stop-color:white"/>
  </linearGradient>
      <rect style="fill:url(#id64)" x="124.22" y="306.22" width="224.92" height="88.13"/>
     </mask>
     <mask id="id65">
  <linearGradient id="id66" gradientUnits="userSpaceOnUse" x1="226.15" y1="406.98" x2="228.42" y2="491.88">
   <stop offset="0" style="stop-opacity:1; stop-color:white"/>
   <stop offset="1" style="stop-opacity:0; stop-color:white"/>
  </linearGradient>
      <rect style="fill:url(#id66)" x="124.22" y="406.96" width="224.92" height="88.12"/>
     </mask>
     <mask id="id67">
  <linearGradient id="id68" gradientUnits="userSpaceOnUse" x1="226.15" y1="507.72" x2="228.42" y2="592.62">
   <stop offset="0" style="stop-opacity:1; stop-color:white"/>
   <stop offset="1" style="stop-opacity:0; stop-color:white"/>
  </linearGradient>
      <rect style="fill:url(#id68)" x="124.22" y="507.7" width="224.92" height="88.12"/>
     </mask>
     <mask id="id69">
  <linearGradient id="id70" gradientUnits="userSpaceOnUse" x1="226.15" y1="608.46" x2="228.42" y2="693.37">
   <stop offset="0" style="stop-opacity:1; stop-color:white"/>
   <stop offset="1" style="stop-opacity:0; stop-color:white"/>
  </linearGradient>
      <rect style="fill:url(#id70)" x="124.22" y="608.44" width="224.92" height="88.12"/>
     </mask>
     <mask id="id71">
  <linearGradient id="id72" gradientUnits="userSpaceOnUse" x1="226.15" y1="709.2" x2="228.42" y2="794.11">
   <stop offset="0" style="stop-opacity:1; stop-color:white"/>
   <stop offset="1" style="stop-opacity:0; stop-color:white"/>
  </linearGradient>
      <rect style="fill:url(#id72)" x="124.22" y="709.18" width="224.92" height="88.12"/>
     </mask>
  <linearGradient id="id73" gradientUnits="userSpaceOnUse" x1="724.86" y1="360.28" x2="713.58" y2="328.92">
   <stop offset="0" style="stop-opacity:1; stop-color:#FF8500"/>
   <stop offset="1" style="stop-opacity:1; stop-color:#FF6C00"/>
  </linearGradient>
  <linearGradient id="id74" gradientUnits="userSpaceOnUse" xlink:href="#id73" x1="415.18" y1="312.58" x2="403.9" y2="281.23">
  </linearGradient>
  <linearGradient id="id75" gradientUnits="userSpaceOnUse" x1="1027.56" y1="478.44" x2="988.47" y2="438.65">
   <stop offset="0" style="stop-opacity:1; stop-color:#560787"/>
   <stop offset="1" style="stop-opacity:1; stop-color:#B504CC"/>
  </linearGradient>
  <linearGradient id="id76" gradientUnits="userSpaceOnUse" x1="383.56" y1="343.78" x2="377.79" y2="310.26">
   <stop offset="0" style="stop-opacity:1; stop-color:#FFF212"/>
   <stop offset="1" style="stop-opacity:1; stop-color:#F58634"/>
  </linearGradient>
  <linearGradient id="id77" gradientUnits="userSpaceOnUse" x1="707.24" y1="657.6" x2="846.97" y2="798.14">
   <stop offset="0" style="stop-opacity:1; stop-color:#FBC71F"/>
   <stop offset="1" style="stop-opacity:1; stop-color:#CC9933"/>
  </linearGradient>
  <linearGradient id="id78" gradientUnits="userSpaceOnUse" xlink:href="#id76" x1="754.1" y1="391.47" x2="748.34" y2="357.96">
  </linearGradient>
  <linearGradient id="id79" gradientUnits="userSpaceOnUse" xlink:href="#id75" x1="353.51" y1="577.59" x2="512.84" y2="340.5">
  </linearGradient>
  <linearGradient id="id80" gradientUnits="userSpaceOnUse" x1="519.87" y1="240.42" x2="467.31" y2="297.02">
   <stop offset="0" style="stop-opacity:1; stop-color:#B504CC"/>
   <stop offset="1" style="stop-opacity:1; stop-color:#5C0C91"/>
  </linearGradient>
  <linearGradient id="id81" gradientUnits="userSpaceOnUse" x1="464.28" y1="298.99" x2="443.91" y2="263.63">
   <stop offset="0" style="stop-opacity:1; stop-color:#FF8500"/>
   <stop offset="1" style="stop-opacity:1; stop-color:#EB5105"/>
  </linearGradient>
  <linearGradient id="id82" gradientUnits="userSpaceOnUse" xlink:href="#id81" x1="692.28" y1="346.69" x2="671.91" y2="311.33">
  </linearGradient>
  <linearGradient id="id83" gradientUnits="userSpaceOnUse" xlink:href="#id75" x1="775.42" y1="625.29" x2="616.09" y2="388.19">
  </linearGradient>
  <linearGradient id="id84" gradientUnits="userSpaceOnUse" x1="402.26" y1="756.38" x2="556.91" y2="544.42">
   <stop offset="0" style="stop-opacity:1; stop-color:#FFF212"/>
   <stop offset="0.431373" style="stop-opacity:1; stop-color:#FABC23"/>
   <stop offset="1" style="stop-opacity:1; stop-color:#F58634"/>
  </linearGradient>
  <linearGradient id="id85" gradientUnits="userSpaceOnUse" xlink:href="#id81" x1="666.99" y1="307.42" x2="705.42" y2="346.11">
  </linearGradient>
  <linearGradient id="id86" gradientUnits="userSpaceOnUse" xlink:href="#id81" x1="1001.54" y1="487.74" x2="1031.77" y2="528.36">
  </linearGradient>
  <linearGradient id="id87" gradientUnits="userSpaceOnUse" xlink:href="#id81" x1="50.01" y1="332.31" x2="80.24" y2="372.93">
  </linearGradient>
  <linearGradient id="id88" gradientUnits="userSpaceOnUse" xlink:href="#id76" x1="308.24" y1="279.12" x2="348.87" y2="319.09">
  </linearGradient>
  <linearGradient id="id89" gradientUnits="userSpaceOnUse" xlink:href="#id84" x1="977.27" y1="514.81" x2="1022.38" y2="564.52">
  </linearGradient>
  <linearGradient id="id90" gradientUnits="userSpaceOnUse" xlink:href="#id81" x1="743.48" y1="639.13" x2="531.94" y2="489.36">
  </linearGradient>
  <linearGradient id="id91" gradientUnits="userSpaceOnUse" xlink:href="#id81" x1="137.84" y1="481.09" x2="349.38" y2="331.32">
  </linearGradient>
  <linearGradient id="id92" gradientUnits="userSpaceOnUse" xlink:href="#id81" x1="385.45" y1="591.43" x2="596.99" y2="441.67">
  </linearGradient>
  <linearGradient id="id93" gradientUnits="userSpaceOnUse" xlink:href="#id81" x1="461.94" y1="259.72" x2="423.51" y2="298.41">
  </linearGradient>
  <linearGradient id="id94" gradientUnits="userSpaceOnUse" xlink:href="#id81" x1="1066.25" y1="380.01" x2="1096.48" y2="420.63">
  </linearGradient>
  <linearGradient id="id95" gradientUnits="userSpaceOnUse" xlink:href="#id81" x1="792.88" y1="348.83" x2="823.11" y2="389.45">
  </linearGradient>
  <linearGradient id="id96" gradientUnits="userSpaceOnUse" xlink:href="#id84" x1="726.67" y1="804.08" x2="572.01" y2="592.11">
  </linearGradient>
  <linearGradient id="id97" gradientUnits="userSpaceOnUse" xlink:href="#id81" x1="991.09" y1="528.78" x2="779.54" y2="379.02">
  </linearGradient>
  <linearGradient id="id98" gradientUnits="userSpaceOnUse" xlink:href="#id81" x1="323.38" y1="301.13" x2="353.61" y2="341.75">
  </linearGradient>
  <linearGradient id="id99" gradientUnits="userSpaceOnUse" xlink:href="#id81" x1="229.79" y1="639" x2="35.65" y2="799.61">
  </linearGradient>
  <linearGradient id="id100" gradientUnits="userSpaceOnUse" xlink:href="#id80" x1="609.05" y1="288.12" x2="661.61" y2="344.72">
  </linearGradient>
  <linearGradient id="id101" gradientUnits="userSpaceOnUse" x1="571.67" y1="701.7" x2="575.83" y2="604.61">
   <stop offset="0" style="stop-opacity:1; stop-color:#FF5400"/>
   <stop offset="1" style="stop-opacity:1; stop-color:#FF8500"/>
  </linearGradient>
  <linearGradient id="id102" gradientUnits="userSpaceOnUse" xlink:href="#id81" x1="416.24" y1="285.87" x2="388.4" y2="319.25">
  </linearGradient>
  <linearGradient id="id103" gradientUnits="userSpaceOnUse" xlink:href="#id81" x1="712.69" y1="333.57" x2="740.52" y2="366.95">
  </linearGradient>
  <linearGradient id="id104" gradientUnits="userSpaceOnUse" xlink:href="#id84" x1="282.73" y1="521.18" x2="39.63" y2="686.09">
  </linearGradient>
  <linearGradient id="id105" gradientUnits="userSpaceOnUse" xlink:href="#id76" x1="767.18" y1="326.82" x2="807.81" y2="366.78">
  </linearGradient>
 </defs>
 <g id="Layer_x0020_1">
  <metadata id="CorelCorpID_0Corel-Layer"/>
  <circle class="fil0" cx="557.62" cy="557.62" r="557.62"/>
  <path class="fil1" d="M557.62 37.07c287.49,0 520.55,233.06 520.55,520.55 0,287.49 -233.06,520.55 -520.55,520.55 -287.49,0 -520.55,-233.06 -520.55,-520.55 0,-287.49 233.06,-520.55 520.55,-520.55z"/>
  <g style="clip-path:url(#id0)">
   <g id="_2647779735408">
   </g>
   <g style="clip-path:url(#id1)">
    <image x="103.88" y="-11.93" width="907.5" height="1139.11" xlink:href="pre_Images\pre_ImgID1.png"/>
   </g>
   <g style="clip-path:url(#id2)">
   </g>
  </g>
  <path class="fil2 str0" d="M557.62 37.07c287.49,0 520.55,233.06 520.55,520.55 0,287.49 -233.06,520.55 -520.55,520.55 -287.49,0 -520.55,-233.06 -520.55,-520.55 0,-287.49 233.06,-520.55 520.55,-520.55z"/>
  <g id="_2647779736272">
   <g style="clip-path:url(#id3)">
    <image x="341.96" y="226.49" width="461.6" height="574.08" xlink:href="pre_Images\pre_ImgID2.png"/>
   </g>
  </g>
  <g id="_2647779736416">
   <polygon class="fil1" points="742.33,443.09 683.67,428.94 643.91,443.09 657.09,476.05 650.36,507.31 659.49,542.37 687.87,545 647.95,643.98 699.97,683.73 723.31,589.64 748.22,539.49 753.96,489.23 "/>
   <path class="fil2" d="M493.42 672.21c86.87,-67.79 69.51,-64.93 140.79,-5.53 4.71,3.93 7.68,6.07 12.4,9.85l-18.91 31.97c-77.9,-78.1 -39.56,-75.37 -116.06,-2.39l-18.22 -33.9z"/>
   <path id="_1" class="fil3" d="M493.42 672.21c86.87,-67.79 69.51,-64.93 140.79,-5.53 4.71,3.93 7.68,6.07 12.4,9.85l-18.91 31.97c-77.9,-78.1 -39.56,-75.37 -116.06,-2.39l-18.22 -33.9z"/>
   <g style="clip-path:url(#id4)">
    <g>
     <path id="_2" class="fil4" d="M477.17 666.18c115.54,-83.68 82.77,-78.11 184.79,14.35l-24.75 37.49c-90.12,-98.5 -42.94,-88.88 -140.22,-6.53l-19.83 -45.31z"/>
    </g>
   </g>
   <g>
    <path class="fil2 str1" d="M650.54 292.03c2.44,6.78 1.53,15.9 -0.76,24.38 -5.54,20.6 -20.98,35.7 -37,35.7 -16.03,0 -24.78,-22.02 -20.21,-41.24 3.03,-12.77 10.37,-25.97 20.93,-31.62 11.97,-6.41 31.88,-1.57 37.04,12.78z"/>
   </g>
   <path id="_1_0" class="fil5" d="M650.54 292.03c2.44,6.78 1.53,15.9 -0.76,24.38 -5.54,20.6 -20.98,35.7 -37,35.7 -16.03,0 -24.78,-22.02 -20.21,-41.24 3.03,-12.77 10.37,-25.97 20.93,-31.62 11.97,-6.41 31.88,-1.57 37.04,12.78z"/>
   <g style="clip-path:url(#id5)">
    <g id="_2647779690960">
     <rect class="fil6 str2" x="565.25" y="255.32" width="108.94" height="130.95"/>
     <path class="fil7" d="M652.44 288.64c2.44,6.78 1.52,15.9 -0.76,24.38 -5.54,20.6 -20.98,35.7 -37,35.7 -16.03,0 -24.78,-22.02 -20.21,-41.24 3.03,-12.77 10.37,-25.97 20.93,-31.62 11.97,-6.41 31.88,-1.57 37.04,12.78z"/>
    </g>
    <g style="clip-path:url(#id6)">
     <g>
      <polygon id="_1_1" class="fil8" style="mask:url(#id7)" points="571.5,271 681.25,271 681.25,312.43 571.5,312.43 "/>
     </g>
    </g>
    <g style="clip-path:url(#id9)">
     <path class="fil2" d="M652.44 288.64c2.44,6.78 1.52,15.9 -0.76,24.38 -5.54,20.6 -20.98,35.7 -37,35.7 -16.03,0 -24.78,-22.02 -20.21,-41.24 3.03,-12.77 10.37,-25.97 20.93,-31.62 11.97,-6.41 31.88,-1.57 37.04,12.78z"/>
    </g>
   </g>
   <g>
    <path class="fil2 str3" d="M698.16 327.05c-5.12,30.4 -40.63,31.66 -40.63,-0.08 0,-20.79 18.76,-34.39 30.31,-31.39 9.2,2.38 12.63,17.79 10.32,31.48z"/>
   </g>
   <path id="_1_2" class="fil9" d="M698.16 327.05c-5.12,30.4 -40.63,31.66 -40.63,-0.08 0,-20.79 18.76,-34.39 30.31,-31.39 9.2,2.38 12.63,17.79 10.32,31.48z"/>
   <g style="clip-path:url(#id10)">
    <g>
     <rect class="fil10" x="642.6" y="285.85" width="75.52" height="74.71"/>
     <path class="fil11" d="M698.43 323.38c-5.12,30.4 -40.63,31.66 -40.63,-0.08 0,-20.79 18.76,-34.39 30.31,-31.39 9.2,2.38 12.63,17.79 10.32,31.48z"/>
     <rect class="fil12" x="1049.94" y="374.37" width="45.29" height="45.29"/>
     <path class="fil13" d="M804.87 324.54c129.28,-3.8 141.7,212.62 171.72,169.51 -0.32,37.11 -7.75,80.89 -20.74,96.14 -35.15,41.25 -105.25,5.28 -135.62,-45.21 14.38,-33.25 -29.74,-187.19 -15.36,-220.44z"/>
    </g>
    <g style="clip-path:url(#id11)">
     <g id="_2647779690336">
      <path id="_1_3" class="fil14" d="M803.45 281.48c82.74,18.86 141.89,81.58 224.63,100.45 -3.76,53.52 25.3,72.39 21.54,125.91 -3.26,-5.73 -39.48,43.23 -49.84,35.92 -12.64,-8.92 -12.05,-31.81 -22.45,-47 -0,-0 -4.14,4.15 -6.24,5.58 -8.34,5.69 -15.45,-8.63 -17.6,-12.61 -8.71,-16.08 -17.41,-33.77 -24.35,-46.79 -15.72,-29.49 -32.14,-54.93 -41.67,-65.46 -10.34,-11.43 -28.45,-27.78 -47.16,-34.37 -24.27,-8.56 -42.5,-4.29 -48.58,-3.56l11.73 -58.08z"/>
     </g>
    </g>
    <g style="clip-path:url(#id12)">
     <path class="fil2" d="M804.87 324.54c129.28,-3.8 141.7,212.62 171.72,169.51 -0.32,37.11 -7.75,80.89 -20.74,96.14 -35.15,41.25 -105.25,5.28 -135.62,-45.21 14.38,-33.25 -29.74,-187.19 -15.36,-220.44z"/>
    </g>
   </g>
   <g>
    <path class="fil2 str4" d="M724.32 327.17c14.28,1.87 14.78,13.69 12.1,24.21 -2.68,10.52 -11.6,16.22 -19.97,16.22 -23.61,-0 -18.14,-43.83 7.86,-40.42z"/>
   </g>
   <path id="_1_4" class="fil15" d="M724.32 327.17c14.28,1.87 14.78,13.69 12.1,24.21 -2.68,10.52 -11.6,16.22 -19.97,16.22 -23.61,-0 -18.14,-43.83 7.86,-40.42z"/>
   <g style="clip-path:url(#id13)">
    <g>
     <rect class="fil16" x="695.65" y="310.93" width="48.9" height="66.02"/>
     <path class="fil17" d="M724.05 324.12c14.28,1.87 14.78,13.69 12.1,24.21 -2.68,10.52 -11.6,16.22 -19.97,16.22 -23.61,-0 -18.14,-43.83 7.87,-40.42z"/>
     <rect class="fil18" x="776.57" y="343.18" width="45.29" height="45.29"/>
    </g>
   </g>
   <g>
    <path class="fil2 str5" d="M753.63 357.57c9.96,1.74 10.41,12.59 7.91,18.68 -2.5,6.09 -9.75,10.8 -15.27,10.58 -15.92,-0.63 -11.14,-32.49 7.35,-29.26z"/>
   </g>
   <path id="_1_5" class="fil19" d="M753.63 357.57c9.96,1.74 10.41,12.59 7.91,18.68 -2.5,6.09 -9.75,10.8 -15.27,10.58 -15.92,-0.63 -11.14,-32.49 7.35,-29.26z"/>
   <g style="clip-path:url(#id14)">
    <g>
     <rect class="fil20" x="731.23" y="352.77" width="38.85" height="38.31"/>
     <path class="fil21" d="M753.63 355.81c9.96,1.74 10.41,12.59 7.91,18.68 -2.5,6.09 -9.75,10.8 -15.27,10.58 -15.92,-0.63 -11.14,-32.49 7.35,-29.26z"/>
     <path class="fil22" d="M788.91 337.43c-14.28,1.87 -14.78,13.69 -12.1,24.21 2.68,10.52 11.6,16.22 19.97,16.22 23.61,-0 18.14,-43.83 -7.87,-40.43z"/>
    </g>
    <g style="clip-path:url(#id15)">
    </g>
    <g style="clip-path:url(#id16)">
     <path id="_1_6" class="fil2" d="M788.91 337.43c-14.28,1.87 -14.78,13.69 -12.1,24.21 2.68,10.52 11.6,16.22 19.97,16.22 23.61,-0 18.14,-43.83 -7.87,-40.43z"/>
     <rect class="fil20" x="796.31" y="320.91" width="48.9" height="66.02"/>
     <path class="fil23" d="M789.19 334.37c-14.28,1.87 -14.78,13.69 -12.1,24.21 2.68,10.52 11.6,16.22 19.97,16.22 23.61,-0 18.14,-43.83 -7.86,-40.42z"/>
    </g>
   </g>
   <g>
    <path class="fil2 str6" d="M776.12 388.72c9.52,1.07 9.87,11.93 7.5,17.7 -2.37,5.77 -8.75,9.92 -13.98,9.78 -16.36,-0.43 -11.38,-29.48 6.48,-27.49z"/>
   </g>
   <path id="_1_7" class="fil24" d="M776.12 388.72c9.52,1.07 9.87,11.93 7.5,17.7 -2.37,5.77 -8.75,9.92 -13.98,9.78 -16.36,-0.43 -11.38,-29.48 6.48,-27.49z"/>
   <g style="clip-path:url(#id17)">
    <g>
     <rect class="fil25 str2" x="757.18" y="376.88" width="38.71" height="46.05"/>
     <path class="fil26" d="M775.57 387.09c9.52,1.06 9.87,11.93 7.5,17.7 -2.37,5.77 -8.75,9.92 -13.98,9.79 -16.35,-0.43 -11.38,-29.49 6.48,-27.49z"/>
    </g>
   </g>
   <g>
    <path class="fil2 str7" d="M629.24 367.76c62.47,-11.26 152.64,64.57 138.42,135.81 -8.77,32.15 -19.31,47.58 -33.62,74.64 -17.07,30.42 -17.64,52.91 -24.78,84.67 -4.89,35.63 -7.42,61.25 -24.39,89.42 -8.25,13.69 -17.24,21.42 -32.35,26.66 -14.04,4.87 -29.01,4.13 -42.74,-3.85 -9.26,-5.38 -17.46,-12.73 -21.15,-25.45 -20.57,-70.92 41.39,-89.59 56.29,-138.78 41.67,-137.52 -51.78,-96.95 -62.85,-144.24 -9.42,-40.25 3.1,-87.77 47.17,-98.89zm52.85 104.7c27.17,-4.9 66.39,28.08 60.2,59.07 -3.82,13.98 -8.4,20.69 -14.62,32.46 -7.42,13.23 -7.67,23.02 -10.78,36.83 -2.13,15.5 -3.23,26.64 -10.61,38.89 -3.59,5.96 -7.5,9.32 -14.07,11.6 -6.11,2.12 -12.62,1.79 -18.59,-1.67 -4.03,-2.34 -7.59,-5.54 -9.2,-11.07 -8.95,-30.85 12.15,-41.72 24.48,-60.36 8.8,-13.3 24.39,-38.75 1.68,-50.3 -6.74,-3.43 -15.6,2.55 -20.1,0.7 -4.99,-2.05 -8.29,-6.47 -9.65,-12.24 -4.77,-18.15 1.47,-38.92 21.24,-43.91zm5.85 -32.27c1.23,2.88 1.07,6.86 0.3,10.61 -1.87,9.09 -8.18,16.04 -15.14,16.46 -6.96,0.41 -11.33,-8.92 -9.84,-17.38 0.99,-5.62 3.83,-11.54 8.27,-14.27 5.03,-3.09 13.8,-1.51 16.42,4.59zm21.58 13.97c-1.44,13.33 -16.82,14.8 -17.64,1.02 -0.54,-9.03 7.26,-15.42 12.35,-14.42 4.06,0.8 5.94,7.4 5.3,13.4zm11.36 -0.62c6.25,0.44 6.77,5.56 5.88,10.2 -0.89,4.64 -4.61,7.34 -8.25,7.56 -10.25,0.61 -9.01,-18.56 2.37,-17.76zm13.51 12.44c4.37,0.5 4.85,5.2 3.92,7.9 -0.93,2.71 -3.95,4.94 -6.35,4.99 -6.93,0.14 -5.68,-13.82 2.44,-12.89zm10.57 12.94c4.16,0.22 4.59,4.92 3.71,7.49 -0.88,2.57 -3.54,4.53 -5.82,4.61 -7.11,0.24 -5.7,-12.51 2.1,-12.1z"/>
   </g>
   <g>
   </g>
   <g style="clip-path:url(#id18)">
    <g>
     <path id="_1_8" class="fil27" d="M548.04 428.92c118.85,-170.85 263.89,13.88 275.17,173.31 -1.2,137.46 -219.43,45.81 -261.02,-23.34 14.38,-33.25 -28.53,-116.72 -14.15,-149.97z"/>
     <path class="fil28" d="M725.63 414.75c-37.39,-43.86 -185.69,-52.18 -102.05,33.47 27,27.65 49.41,58.29 63.21,98.54 4.53,13.22 11.41,30.53 19.16,46.75 3.56,7.44 7.5,12.31 10.66,16.6 18,24.38 33.16,20.82 38.13,29.25 22.91,38.84 84.9,-90.85 -29.11,-224.6z"/>
     <polygon class="fil24" style="mask:url(#id19)" points="441.18,331.38 651.28,331.38 651.28,552.08 441.18,552.08 "/>
     <path class="fil29" d="M557.27 434.89c129.28,-3.8 141.7,212.62 171.72,169.51 -0.32,37.11 -7.75,80.89 -20.75,96.14 -35.14,41.25 -105.25,5.28 -135.61,-45.21 14.38,-33.25 -29.74,-187.19 -15.36,-220.44z"/>
    </g>
    <g style="clip-path:url(#id21)">
     <g>
      <path id="_1_9" class="fil14" d="M555.84 391.82c82.74,18.86 141.88,81.59 224.63,100.45 -3.76,53.52 25.3,72.39 21.54,125.91 -3.26,-5.73 -39.48,43.23 -49.84,35.91 -12.64,-8.92 -12.05,-31.81 -22.45,-47 -0,-0.01 -4.14,4.15 -6.24,5.58 -8.34,5.69 -15.45,-8.63 -17.6,-12.61 -8.71,-16.08 -17.41,-33.77 -24.35,-46.79 -15.72,-29.49 -32.14,-54.93 -41.67,-65.46 -10.34,-11.43 -28.45,-27.77 -47.16,-34.37 -24.27,-8.56 -42.5,-4.29 -48.58,-3.56l11.73 -58.08z"/>
     </g>
    </g>
    <g style="clip-path:url(#id22)">
     <path class="fil2" d="M557.27 434.89c129.28,-3.8 141.7,212.62 171.72,169.51 -0.32,37.11 -7.75,80.89 -20.75,96.14 -35.14,41.25 -105.25,5.28 -135.61,-45.21 14.38,-33.25 -29.74,-187.19 -15.36,-220.44z"/>
     <rect class="fil26" x="515.9" y="711.3" width="197.36" height="175.43"/>
     <path class="fil30" d="M561.39 558.41c23.79,8.81 37.53,38 60.86,55.34 42.87,31.86 83.93,63.47 84.24,111.25 -2.59,53.53 -32.16,-31.95 -34.75,21.58 -19.81,-62.49 -106.81,-67.67 -137.94,-105.4 14.38,-33.25 13.2,-49.52 27.59,-82.76z"/>
     <path class="fil31" d="M599.33 606.12c42.91,48.22 80.88,54 111.77,111.77 -2.59,53.53 -15.44,36.67 -18.04,90.19 -19.81,-62.49 -106.81,-67.67 -137.94,-105.4 14.38,-33.25 29.83,-63.31 44.21,-96.56z"/>
    </g>
    <g style="clip-path:url(#id23)">
     <g>
      <path id="_1_10" class="fil32" d="M543.53 649.27c23.79,8.81 35.41,42.95 58.74,60.29 42.86,31.86 86.05,58.52 86.37,106.3 -2.59,53.52 -32.16,-31.95 -34.75,21.57 -19.81,-62.49 -106.82,-67.67 -137.94,-105.4 14.38,-33.25 13.2,-49.52 27.59,-82.76z"/>
      <path class="fil33" d="M625.5 568.63c57.06,18.86 97.86,81.59 154.92,100.45 -2.59,53.53 -42.68,27.12 -45.27,80.64 -0.96,-7.2 -23.03,6.93 -23.91,-1.22 -5.37,-49.56 -82.6,-100.72 -90.24,-132.48 14.38,-33.25 -9.87,-14.15 4.51,-47.39z"/>
     </g>
    </g>
    <g style="clip-path:url(#id24)">
     <path class="fil2" d="M599.33 606.12c42.91,48.22 80.88,54 111.77,111.77 -2.59,53.53 -15.44,36.67 -18.04,90.19 -19.81,-62.49 -106.81,-67.67 -137.94,-105.4 14.38,-33.25 29.83,-63.31 44.21,-96.56z"/>
    </g>
   </g>
   <polygon class="fil1" points="383.75,387.43 442.42,373.27 482.18,387.43 469,420.38 475.73,451.65 466.59,486.7 438.21,489.34 478.14,588.32 426.11,628.07 402.78,533.98 377.86,483.83 372.12,433.57 "/>
   <g>
    <g>
     <path class="fil2 str8" d="M478.39 244.34c-2.44,6.78 -1.53,15.9 0.76,24.38 5.54,20.6 20.98,35.7 37,35.7 16.03,0 24.78,-22.02 20.21,-41.24 -3.03,-12.77 -10.37,-25.97 -20.93,-31.62 -11.97,-6.41 -31.88,-1.57 -37.04,12.78z"/>
    </g>
    <path id="_1_11" class="fil5" d="M478.39 244.34c-2.44,6.78 -1.53,15.9 0.76,24.38 5.54,20.6 20.98,35.7 37,35.7 16.03,0 24.78,-22.02 20.21,-41.24 -3.03,-12.77 -10.37,-25.97 -20.93,-31.62 -11.97,-6.41 -31.88,-1.57 -37.04,12.78z"/>
    <g style="clip-path:url(#id25)">
     <g>
      <rect class="fil6 str2" x="454.74" y="207.62" width="108.94" height="130.95"/>
      <path class="fil34" d="M476.49 240.94c-2.44,6.78 -1.52,15.9 0.76,24.38 5.54,20.6 20.98,35.7 37,35.7 16.02,0 24.78,-22.03 20.21,-41.24 -3.03,-12.77 -10.37,-25.97 -20.93,-31.62 -11.97,-6.41 -31.88,-1.57 -37.04,12.78z"/>
     </g>
     <g style="clip-path:url(#id26)">
      <g>
       <polygon id="_1_12" class="fil8" style="mask:url(#id27)" points="557.43,223.3 447.67,223.3 447.67,264.73 557.43,264.73 "/>
      </g>
     </g>
     <g style="clip-path:url(#id29)">
      <path class="fil2" d="M476.49 240.94c-2.44,6.78 -1.52,15.9 0.76,24.38 5.54,20.6 20.98,35.7 37,35.7 16.02,0 24.78,-22.03 20.21,-41.24 -3.03,-12.77 -10.37,-25.97 -20.93,-31.62 -11.97,-6.41 -31.88,-1.57 -37.04,12.78z"/>
     </g>
    </g>
    <g>
     <path class="fil2 str9" d="M430.77 279.35c5.12,30.4 40.63,31.66 40.63,-0.08 0,-20.79 -18.76,-34.39 -30.31,-31.39 -9.2,2.38 -12.63,17.79 -10.32,31.48z"/>
    </g>
    <path id="_1_13" class="fil35" d="M430.77 279.35c5.12,30.4 40.63,31.66 40.63,-0.08 0,-20.79 -18.76,-34.39 -30.31,-31.39 -9.2,2.38 -12.63,17.79 -10.32,31.48z"/>
    <g style="clip-path:url(#id30)">
     <g>
      <rect class="fil10" x="410.81" y="238.15" width="75.52" height="74.71"/>
      <path class="fil36" d="M430.5 275.68c5.13,30.4 40.63,31.66 40.63,-0.08 0,-20.8 -18.76,-34.39 -30.31,-31.4 -9.2,2.38 -12.63,17.79 -10.32,31.48z"/>
      <rect class="fil37" x="33.7" y="326.67" width="45.29" height="45.29"/>
      <path class="fil38" d="M324.05 276.84c-129.28,-3.8 -141.7,212.62 -171.72,169.51 0.32,37.11 7.75,80.89 20.75,96.14 35.14,41.25 105.25,5.28 135.61,-45.21 -14.38,-33.25 29.74,-187.19 15.36,-220.44z"/>
     </g>
     <g style="clip-path:url(#id31)">
      <g>
       <path id="_1_14" class="fil14" d="M325.48 233.78c-82.74,18.86 -141.89,81.59 -224.63,100.45 3.76,53.52 -25.3,72.39 -21.54,125.91 3.26,-5.73 39.48,43.23 49.84,35.92 12.64,-8.93 12.05,-31.81 22.45,-47 0,-0.01 4.14,4.15 6.24,5.58 8.34,5.7 15.45,-8.63 17.61,-12.61 8.71,-16.08 17.41,-33.77 24.35,-46.79 15.72,-29.49 32.14,-54.93 41.67,-65.46 10.34,-11.43 28.45,-27.77 47.16,-34.37 24.27,-8.56 42.5,-4.29 48.58,-3.56l-11.73 -58.08z"/>
      </g>
     </g>
     <g style="clip-path:url(#id32)">
      <path class="fil2" d="M324.05 276.84c-129.28,-3.8 -141.7,212.62 -171.72,169.51 0.32,37.11 7.75,80.89 20.75,96.14 35.14,41.25 105.25,5.28 135.61,-45.21 -14.38,-33.25 29.74,-187.19 15.36,-220.44z"/>
     </g>
    </g>
    <g>
     <path class="fil2 str10" d="M404.6 279.47c-14.28,1.87 -14.78,13.69 -12.1,24.21 2.68,10.52 11.6,16.22 19.97,16.22 23.61,-0 18.14,-43.83 -7.86,-40.42z"/>
    </g>
    <path id="_1_15" class="fil39" d="M404.6 279.47c-14.28,1.87 -14.78,13.69 -12.1,24.21 2.68,10.52 11.6,16.22 19.97,16.22 23.61,-0 18.14,-43.83 -7.86,-40.42z"/>
    <g style="clip-path:url(#id33)">
     <g>
      <rect class="fil16" x="384.38" y="263.24" width="48.9" height="66.02"/>
      <path class="fil40" d="M404.88 276.42c-14.28,1.87 -14.78,13.69 -12.1,24.21 2.68,10.52 11.6,16.22 19.97,16.22 23.61,-0 18.14,-43.83 -7.86,-40.42z"/>
      <rect class="fil41" x="307.07" y="295.48" width="45.29" height="45.29"/>
     </g>
    </g>
    <g>
     <path class="fil2 str11" d="M375.3 309.88c-9.96,1.74 -10.41,12.59 -7.91,18.68 2.5,6.09 9.75,10.8 15.27,10.58 15.92,-0.63 11.14,-32.49 -7.35,-29.26z"/>
    </g>
    <path id="_1_16" class="fil19" d="M375.3 309.88c-9.96,1.74 -10.41,12.59 -7.91,18.68 2.5,6.09 9.75,10.8 15.27,10.58 15.92,-0.63 11.14,-32.49 -7.35,-29.26z"/>
    <g style="clip-path:url(#id34)">
     <g>
      <rect class="fil20" x="358.84" y="305.07" width="38.85" height="38.31"/>
      <path class="fil42" d="M375.3 308.11c-9.96,1.74 -10.41,12.59 -7.91,18.68 2.5,6.09 9.75,10.8 15.27,10.58 15.92,-0.63 11.14,-32.49 -7.35,-29.26z"/>
      <path class="fil22" d="M340.01 289.73c14.28,1.87 14.78,13.69 12.1,24.21 -2.68,10.52 -11.6,16.22 -19.97,16.22 -23.61,-0 -18.15,-43.83 7.86,-40.43z"/>
     </g>
     <g style="clip-path:url(#id35)">
     </g>
     <g style="clip-path:url(#id36)">
      <path id="_1_17" class="fil2" d="M340.01 289.73c14.28,1.87 14.78,13.69 12.1,24.21 -2.68,10.52 -11.6,16.22 -19.97,16.22 -23.61,-0 -18.15,-43.83 7.86,-40.43z"/>
      <rect class="fil20" x="283.71" y="273.21" width="48.9" height="66.02"/>
      <path class="fil43" d="M339.74 286.68c14.28,1.87 14.78,13.69 12.1,24.21 -2.68,10.52 -11.6,16.22 -19.97,16.22 -23.61,-0 -18.14,-43.83 7.86,-40.42z"/>
     </g>
    </g>
    <g>
     <path class="fil2 str12" d="M352.81 341.02c-9.52,1.07 -9.87,11.93 -7.5,17.7 2.37,5.77 8.75,9.92 13.98,9.78 16.35,-0.43 11.38,-29.48 -6.48,-27.49z"/>
    </g>
    <path id="_1_18" class="fil24" d="M352.81 341.02c-9.52,1.07 -9.87,11.93 -7.5,17.7 2.37,5.77 8.75,9.92 13.98,9.78 16.35,-0.43 11.38,-29.48 -6.48,-27.49z"/>
    <g style="clip-path:url(#id37)">
     <g>
      <rect class="fil25 str2" x="333.04" y="329.18" width="38.71" height="46.05"/>
      <path class="fil26" d="M353.36 339.39c-9.52,1.07 -9.87,11.93 -7.5,17.7 2.37,5.77 8.75,9.92 13.98,9.78 16.35,-0.43 11.38,-29.48 -6.48,-27.49z"/>
     </g>
    </g>
    <g>
     <path class="fil2 str13" d="M499.69 320.06c-62.47,-11.26 -152.64,64.57 -138.42,135.81 8.77,32.15 19.31,47.58 33.62,74.64 17.07,30.42 17.64,52.91 24.78,84.67 4.89,35.63 7.42,61.25 24.39,89.42 8.25,13.69 17.24,21.42 32.35,26.66 14.04,4.87 29.01,4.13 42.74,-3.85 9.26,-5.38 17.46,-12.73 21.15,-25.45 20.57,-70.92 -41.39,-89.59 -56.29,-138.78 -41.67,-137.52 51.78,-96.95 62.85,-144.24 9.42,-40.25 -3.1,-87.77 -47.17,-98.89zm-52.85 104.69c-27.17,-4.9 -66.39,28.08 -60.21,59.07 3.82,13.98 8.4,20.69 14.62,32.46 7.42,13.23 7.67,23.02 10.78,36.83 2.13,15.5 3.23,26.64 10.61,38.89 3.59,5.96 7.5,9.32 14.07,11.6 6.11,2.12 12.62,1.79 18.59,-1.67 4.03,-2.34 7.59,-5.54 9.2,-11.07 8.95,-30.85 -12.15,-41.72 -24.49,-60.36 -8.8,-13.3 -24.39,-38.75 -1.68,-50.3 6.74,-3.43 15.6,2.55 20.1,0.7 4.99,-2.05 8.29,-6.47 9.65,-12.24 4.77,-18.15 -1.47,-38.92 -21.24,-43.91zm-5.86 -32.27c-1.23,2.88 -1.07,6.86 -0.3,10.61 1.87,9.09 8.18,16.04 15.14,16.46 6.96,0.41 11.33,-8.92 9.84,-17.38 -0.99,-5.62 -3.83,-11.54 -8.27,-14.27 -5.03,-3.09 -13.8,-1.51 -16.42,4.59zm-21.58 13.97c1.44,13.33 16.82,14.8 17.64,1.02 0.54,-9.03 -7.26,-15.42 -12.35,-14.42 -4.06,0.8 -5.94,7.4 -5.3,13.4zm-11.36 -0.62c-6.25,0.44 -6.77,5.56 -5.88,10.2 0.89,4.64 4.62,7.34 8.25,7.56 10.25,0.61 9.01,-18.56 -2.37,-17.76zm-13.51 12.44c-4.37,0.5 -4.85,5.2 -3.92,7.9 0.93,2.71 3.95,4.94 6.35,4.99 6.93,0.14 5.68,-13.82 -2.44,-12.89zm-10.57 12.94c-4.16,0.22 -4.59,4.92 -3.71,7.49 0.88,2.57 3.54,4.53 5.82,4.61 7.11,0.24 5.7,-12.51 -2.1,-12.1z"/>
    </g>
    <g>
    </g>
    <g style="clip-path:url(#id38)">
     <g>
      <path id="_1_19" class="fil27" d="M580.89 381.22c-118.85,-170.85 -263.89,13.88 -275.17,173.31 1.2,137.46 219.43,45.81 261.02,-23.34 -14.38,-33.25 28.53,-116.72 14.15,-149.97z"/>
      <path class="fil44" d="M403.3 367.06c37.39,-43.87 185.69,-52.18 102.05,33.46 -27,27.65 -49.41,58.29 -63.21,98.54 -4.53,13.21 -11.41,30.53 -19.16,46.75 -3.56,7.44 -7.5,12.31 -10.66,16.6 -18,24.38 -33.16,20.82 -38.13,29.25 -22.92,38.84 -84.9,-90.85 29.11,-224.6z"/>
      <polygon class="fil24" style="mask:url(#id39)" points="687.74,283.68 477.65,283.68 477.65,504.38 687.74,504.38 "/>
      <path class="fil45" d="M571.66 387.19c-129.28,-3.8 -141.7,212.62 -171.72,169.51 0.32,37.11 7.75,80.89 20.75,96.14 35.14,41.25 105.25,5.28 135.61,-45.21 -14.38,-33.25 29.74,-187.19 15.36,-220.44z"/>
     </g>
     <g style="clip-path:url(#id41)">
      <g>
       <path id="_1_20" class="fil14" d="M573.09 344.13c-82.74,18.86 -141.89,81.58 -224.63,100.45 3.76,53.52 -25.3,72.39 -21.54,125.91 3.26,-5.73 39.48,43.23 49.84,35.92 12.64,-8.92 12.04,-31.81 22.45,-47 0,-0.01 4.14,4.15 6.24,5.58 8.34,5.7 15.45,-8.63 17.6,-12.61 8.71,-16.08 17.41,-33.77 24.35,-46.79 15.72,-29.49 32.14,-54.93 41.67,-65.46 10.34,-11.43 28.45,-27.77 47.16,-34.37 24.27,-8.56 42.5,-4.29 48.58,-3.56l-11.73 -58.08z"/>
      </g>
     </g>
     <g style="clip-path:url(#id42)">
      <path class="fil2" d="M571.66 387.19c-129.28,-3.8 -141.7,212.62 -171.72,169.51 0.32,37.11 7.75,80.89 20.75,96.14 35.14,41.25 105.25,5.28 135.61,-45.21 -14.38,-33.25 29.74,-187.19 15.36,-220.44z"/>
      <path class="fil46" d="M250.98 556.8c-129.28,-3.8 -141.7,212.62 -171.72,169.51 0.32,37.1 7.75,80.89 20.74,96.14 35.15,41.25 105.25,5.28 135.62,-45.21 -14.38,-33.25 29.74,-187.19 15.35,-220.44z"/>
     </g>
     <g style="clip-path:url(#id43)">
      <g>
       <path id="_1_21" class="fil14" d="M252.41 513.73c-82.74,18.86 -141.89,81.59 -224.63,100.45 3.76,53.52 -25.3,72.39 -21.54,125.91 3.26,-5.73 39.48,43.23 49.84,35.92 12.64,-8.92 12.05,-31.81 22.45,-47 0,-0.01 4.15,4.15 6.24,5.58 8.34,5.7 15.45,-8.63 17.61,-12.61 8.71,-16.08 17.41,-33.77 24.35,-46.79 15.72,-29.49 32.14,-54.93 41.67,-65.46 10.34,-11.43 28.45,-27.77 47.16,-34.37 24.27,-8.56 42.5,-4.29 48.58,-3.56l-11.73 -58.08z"/>
      </g>
     </g>
     <g style="clip-path:url(#id44)">
      <path class="fil2" d="M250.98 556.8c-129.28,-3.8 -141.7,212.62 -171.72,169.51 0.32,37.1 7.75,80.89 20.74,96.14 35.15,41.25 105.25,5.28 135.62,-45.21 -14.38,-33.25 29.74,-187.19 15.35,-220.44z"/>
      <path class="fil47" d="M210.37 522.46c-119.16,-3.5 -130.61,195.97 -158.27,156.24 0.3,34.2 7.14,74.56 19.12,88.61 32.39,38.02 97.01,4.87 125,-41.67 -13.26,-30.64 27.41,-172.54 14.15,-203.18z"/>
     </g>
     <g style="clip-path:url(#id45)">
      <g>
       <path id="_1_22" class="fil48" d="M211.69 482.77c-76.26,17.39 -130.78,75.2 -207.05,92.59 3.47,49.34 -23.32,66.72 -19.85,116.06 3,-5.28 36.39,39.85 45.94,33.1 11.65,-8.22 11.1,-29.32 20.69,-43.32 0.01,-0 3.82,3.82 5.76,5.14 7.69,5.25 14.24,-7.95 16.23,-11.62 8.03,-14.82 16.05,-31.13 22.45,-43.13 14.49,-27.19 29.63,-50.63 38.4,-60.33 9.53,-10.54 26.22,-25.6 43.46,-31.68 22.37,-7.89 39.17,-3.96 44.78,-3.28l-10.81 -53.53z"/>
      </g>
     </g>
     <g style="clip-path:url(#id46)">
      <path class="fil2" d="M210.37 522.46c-119.16,-3.5 -130.61,195.97 -158.27,156.24 0.3,34.2 7.14,74.56 19.12,88.61 32.39,38.02 97.01,4.87 125,-41.67 -13.26,-30.64 27.41,-172.54 14.15,-203.18z"/>
      <rect class="fil26" x="415.67" y="663.6" width="197.36" height="175.43"/>
      <path class="fil49" d="M847.26 601.87c-57.06,18.86 -97.85,81.59 -154.92,100.45 2.59,53.53 42.68,27.12 45.27,80.64 0.97,-7.2 17.15,-5.79 17.9,-13.95 4.4,-47.63 103.94,-72.93 108.01,-107.36 -14.38,-33.25 -1.89,-26.53 -16.27,-59.77z"/>
      <path class="fil30" d="M567.54 510.72c-23.79,8.81 -37.53,38 -60.86,55.34 -42.86,31.86 -83.93,63.47 -84.24,111.25 2.59,53.53 32.16,-31.95 34.75,21.58 19.81,-62.49 106.82,-67.67 137.94,-105.4 -14.38,-33.25 -13.2,-49.52 -27.59,-82.76z"/>
      <path class="fil50" d="M529.6 558.42c-42.91,48.22 -80.88,54 -111.77,111.77 2.59,53.53 15.44,36.67 18.04,90.19 19.81,-62.49 106.82,-67.67 137.94,-105.4 -14.38,-33.25 -29.83,-63.31 -44.21,-96.56z"/>
     </g>
     <g style="clip-path:url(#id47)">
      <g>
       <path id="_1_23" class="fil32" d="M585.4 601.57c-23.79,8.81 -35.41,42.95 -58.73,60.29 -42.87,31.86 -86.06,58.52 -86.37,106.3 2.59,53.53 32.16,-31.95 34.75,21.58 19.81,-62.49 106.81,-67.67 137.94,-105.4 -14.38,-33.25 -13.21,-49.52 -27.59,-82.76z"/>
       <path class="fil33" d="M503.43 520.93c-57.06,18.86 -97.85,81.58 -154.92,100.45 2.59,53.53 42.68,27.12 45.27,80.64 0.96,-7.2 23.03,6.93 23.91,-1.22 5.37,-49.56 82.6,-100.72 90.24,-132.48 -14.38,-33.25 9.87,-14.15 -4.51,-47.39z"/>
      </g>
     </g>
     <g style="clip-path:url(#id48)">
      <path class="fil2" d="M529.6 558.42c-42.91,48.22 -80.88,54 -111.77,111.77 2.59,53.53 15.44,36.67 18.04,90.19 19.81,-62.49 106.82,-67.67 137.94,-105.4 -14.38,-33.25 -29.83,-63.31 -44.21,-96.56z"/>
      <rect class="fil51" x="984.94" y="436.87" width="45.29" height="45.29"/>
      <rect class="fil52" x="985.22" y="482.1" width="45.29" height="45.29"/>
      <rect class="fil53" x="985.22" y="525.6" width="45.29" height="45.29"/>
     </g>
    </g>
   </g>
  </g>
  <g>
   <g style="clip-path:url(#id49)">
    <image x="790.16" y="314.92" width="186.66" height="505.98" xlink:href="pre_Images\pre_ImgID3.png"/>
   </g>
  </g>
  <g>
   <path class="fil54" d="M955.41 376.08l-150.84 -56.97 4.2 -11.03 150.84 56.97 3.82 5.51 -8.03 5.51zm4.2 -11.03c3.06,1.15 4.6,4.56 3.44,7.61 -1.16,3.04 -4.58,4.57 -7.64,3.42l4.2 -11.03zm-8.03 5.56l0 -0.05 11.85 0 0 0.05 -11.85 0zm11.85 0c0,3.26 -2.65,5.9 -5.93,5.9 -3.27,0 -5.93,-2.64 -5.93,-5.9l11.85 0zm-11.85 44.97l-0 -44.97 11.85 0 0 44.97 0 0 -11.85 0zm11.85 0c0,3.26 -2.65,5.9 -5.93,5.9 -3.27,0 -5.93,-2.64 -5.93,-5.9l11.85 0zm-11.85 0.05l0 -0.05 11.85 0 0 0.05 -11.85 0zm11.85 0c0,3.26 -2.65,5.9 -5.93,5.9 -3.27,0 -5.93,-2.64 -5.93,-5.9l11.85 0zm-11.84 338.86l-0.02 -338.86 11.85 0 0.02 338.86 0 0 -11.85 0zm11.85 0c0,3.26 -2.65,5.9 -5.93,5.9 -3.27,0 -5.93,-2.64 -5.93,-5.9l11.85 0zm-11.85 45.02l-0 -45.02 11.85 0 0 45.02 -8.05 5.51 -3.8 -5.51zm11.85 0c0,3.26 -2.65,5.9 -5.93,5.9 -3.27,0 -5.93,-2.64 -5.93,-5.9l11.85 0zm-174.95 -70.8l171.15 65.29 -4.24 11.01 -171.15 -65.29 -3.8 -5.51 8.05 -5.51zm-4.24 11.01c-3.05,-1.17 -4.58,-4.58 -3.41,-7.62 1.17,-3.04 4.6,-4.56 7.65,-3.39l-4.24 11.01zm8.05 -50.52l0 45.02 -11.85 0 -0 -45.02 11.85 0zm-11.85 0c0,-3.26 2.65,-5.9 5.93,-5.9 3.27,0 5.93,2.64 5.93,5.9l-11.85 0zm11.85 -80.03l0 80.03 -11.85 0 -0 -80.03 3.83 -5.51 8.02 5.51zm-11.85 0c0,-3.26 2.65,-5.9 5.93,-5.9 3.27,0 5.93,2.64 5.93,5.9l-11.85 0zm73.39 -19.11l-65.36 24.62 -4.2 -11.03 65.36 -24.62 8.02 5.51 -3.83 5.51zm-4.2 -11.03c3.06,-1.15 6.48,0.38 7.64,3.43 1.16,3.04 -0.38,6.45 -3.44,7.6l-4.2 -11.03zm-3.82 121.92l-0.01 -116.41 11.85 0 0.01 116.41 -8.05 5.51 -3.8 -5.51zm11.85 0c0,3.26 -2.65,5.9 -5.93,5.9 -3.27,0 -5.93,-2.64 -5.93,-5.9l11.85 0zm32.37 20.92l-40.42 -15.42 4.24 -11.01 40.42 15.42 3.8 5.51 -8.05 5.51zm4.24 -11.01c3.05,1.17 4.58,4.58 3.41,7.62 -1.17,3.04 -4.6,4.56 -7.65,3.39l4.24 -11.01zm3.8 5.45l0 0.05 -11.85 0 0 -0.05 8.09 -5.49 3.76 5.49zm-11.85 0c0,-3.26 2.65,-5.9 5.93,-5.9 3.27,0 5.93,2.64 5.93,5.9l-11.85 0zm15.52 10.09l-11.76 -4.6 4.33 -10.98 11.76 4.6 2.78 2.23 -7.11 8.75zm4.33 -10.98c3.04,1.19 4.54,4.61 3.35,7.64 -1.19,3.03 -4.63,4.52 -7.68,3.33l4.33 -10.98zm-8.99 -15.45l11.76 17.68 -9.88 6.51 -11.76 -17.68 -0.98 -3.26 10.87 -3.26zm-9.88 6.51c-1.81,-2.71 -1.06,-6.37 1.67,-8.17 2.73,-1.8 6.41,-1.05 8.21,1.66l-9.88 6.51zm10.85 -305.01l0.01 301.75 -11.85 0 -0.01 -301.75 0 0 11.85 0zm-11.85 0c0,-3.26 2.65,-5.9 5.93,-5.9 3.27,0 5.93,2.64 5.93,5.9l-11.85 0zm11.85 -0.05l0 0.05 -11.85 0 0 -0.05 8.01 -5.52 3.84 5.52zm-11.85 0c0,-3.26 2.65,-5.9 5.93,-5.9 3.27,0 5.93,2.64 5.93,5.9l-11.85 0zm-77.47 -37.55l85.48 32.03 -4.17 11.04 -85.48 -32.03 -3.84 -5.52 8.01 -5.52zm-4.17 11.04c-3.06,-1.15 -4.61,-4.55 -3.46,-7.6 1.15,-3.05 4.57,-4.59 7.63,-3.44l-4.17 11.04zm8.01 -46.93l0 41.41 -11.85 0 -0 -41.41 10.93 -3.16 0.93 3.16zm-11.85 0c0,-3.26 2.65,-5.9 5.93,-5.9 3.27,0 5.93,2.64 5.93,5.9l-11.85 0zm-1.22 -22.18l12.15 19.02 -10 6.33 -12.15 -19.02 7.11 -8.67 2.89 2.35zm-10 6.33c-1.76,-2.75 -0.94,-6.39 1.82,-8.14 2.76,-1.75 6.42,-0.93 8.18,1.81l-10 6.33zm15.05 6.97l-12.16 -4.62 4.23 -11.02 12.16 4.62 -4.22 11.02 -0.01 -0zm4.23 -11.02c3.06,1.16 4.59,4.57 3.42,7.61 -1.17,3.04 -4.59,4.57 -7.65,3.41l4.23 -11.02zm-2.11 5.51l0 0 0 0 0 0 2.1 -5.51 -2.1 5.51zm2.11 -5.51c3.06,1.16 4.59,4.57 3.42,7.61 -1.17,3.04 -4.59,4.57 -7.65,3.41l4.23 -11.02z"/>
  </g>
  <polygon id="_1_24" class="fil0" points="806.68,313.6 957.52,370.56 957.52,370.61 957.52,415.58 957.52,415.63 957.53,754.49 957.54,799.51 786.39,734.21 786.39,689.19 786.38,609.17 851.75,584.55 851.75,700.95 892.17,716.37 892.17,716.32 903.93,720.92 892.17,703.24 892.15,401.49 892.15,401.44 806.67,369.4 806.67,327.99 794.52,308.97 806.68,313.6 "/>
  <g style="clip-path:url(#id50)">
   <g>
    <polygon id="_2_25" class="fil55" style="mask:url(#id51)" points="773.05,307.35 997.97,307.35 997.97,395.81 773.05,395.81 "/>
    <polygon class="fil55" style="mask:url(#id53)" points="773.05,408.47 997.97,408.47 997.97,496.92 773.05,496.92 "/>
    <polygon class="fil55" style="mask:url(#id55)" points="773.05,509.59 997.97,509.59 997.97,598.04 773.05,598.04 "/>
    <polygon class="fil55" style="mask:url(#id57)" points="773.05,610.71 997.97,610.71 997.97,699.16 773.05,699.16 "/>
    <polygon class="fil55" style="mask:url(#id59)" points="773.05,711.82 997.97,711.82 997.97,800.28 773.05,800.28 "/>
   </g>
  </g>
  <g>
   <g style="clip-path:url(#id61)">
    <image x="138.43" y="304.08" width="218.67" height="509.35" xlink:href="pre_Images\pre_ImgID4.png"/>
   </g>
  </g>
  <g>
   <path class="fil56" d="M152.28 794.08l186.62 -71.26 4.25 11.01 -186.62 71.26 -8.05 -5.51 3.8 -5.51zm4.25 11.01c-3.05,1.17 -6.48,-0.35 -7.66,-3.39 -1.17,-3.04 0.36,-6.45 3.41,-7.62l4.25 11.01zm3.8 -50.52l0 45.02 -11.85 0 -0 -45.02 0 0 11.85 0zm-11.85 0c0,-3.26 2.65,-5.9 5.93,-5.9 3.27,0 5.93,2.64 5.93,5.9l-11.85 0zm11.85 -130.15l0.01 130.15 -11.85 0 -0.01 -130.15 0 0 11.85 0zm-11.85 0c0,-3.26 2.65,-5.9 5.93,-5.9 3.27,0 5.93,2.64 5.93,5.9l-11.85 0zm11.85 -46.88l0 46.88 -11.85 0 -0 -46.88 3.82 -5.51 8.03 5.51zm-11.85 0c0,-3.26 2.65,-5.9 5.93,-5.9 3.27,0 5.93,2.64 5.93,5.9l-11.85 0zm129.26 -40.29l-121.24 45.8 -4.21 -11.03 121.24 -45.8 4.04 -0.06 0.17 11.09zm-4.21 -11.03c3.06,-1.15 6.48,0.38 7.64,3.42 1.16,3.04 -0.38,6.45 -3.44,7.61l-4.21 -11.03zm-11.88 -5.53l15.92 5.47 -3.87 11.15 -15.92 -5.47 -3.99 -5.57 7.86 -5.57zm-3.87 11.15c-3.09,-1.06 -4.73,-4.42 -3.67,-7.5 1.07,-3.08 4.44,-4.71 7.54,-3.65l-3.87 11.15zm7.86 -143.22l0.01 137.64 -11.85 0 -0.01 -137.64 3.8 -5.5 8.05 5.5zm-11.85 0c0,-3.26 2.65,-5.9 5.93,-5.9 3.27,0 5.93,2.64 5.93,5.9l-11.85 0zm-50.95 15.46l54.75 -20.96 4.26 11.01 -54.75 20.96 -4.06 0.07 -0.19 -11.08zm4.26 11.01c-3.05,1.17 -6.48,-0.35 -7.66,-3.39 -1.17,-3.04 0.35,-6.45 3.4,-7.62l4.26 11.01zm11.88 5.55l-15.95 -5.48 3.87 -11.15 15.95 5.48 3.99 5.57 -7.86 5.57zm3.87 -11.15c3.09,1.06 4.74,4.42 3.67,7.5 -1.07,3.08 -4.44,4.71 -7.53,3.65l3.87 -11.15zm-7.86 78.21l-0 -72.63 11.85 0 0 72.63 -3.97 5.57 -7.88 -5.57zm11.85 0c0,3.26 -2.65,5.9 -5.93,5.9 -3.27,0 -5.93,-2.64 -5.93,-5.9l11.85 0zm-74.4 17.54l66.52 -23.11 3.91 11.13 -66.52 23.11 -7.88 -5.57 3.97 -5.57zm3.91 11.13c-3.09,1.07 -6.47,-0.55 -7.55,-3.62 -1.08,-3.07 0.55,-6.44 3.64,-7.51l3.91 11.13zm3.97 -23.53l0 17.96 -11.85 0 0 -17.96 11.85 0zm-11.85 0c0,-3.26 2.65,-5.9 5.93,-5.9 3.27,0 5.93,2.64 5.93,5.9l-11.85 0zm11.85 -76.4l0.01 76.4 -11.85 0 -0.01 -76.4 0 0 11.85 0zm-11.85 0c0,-3.26 2.65,-5.9 5.93,-5.9 3.27,0 5.93,2.64 5.93,5.9l-11.85 0zm11.85 -33.45l0 33.45 -11.85 0 0 -33.45 7.86 -5.57 3.99 5.57zm-11.85 0c0,-3.26 2.65,-5.9 5.93,-5.9 3.27,0 5.93,2.64 5.93,5.9l-11.85 0zm-8.03 -11.04l15.89 5.46 -3.87 11.15 -15.89 -5.46 -0.19 -11.08 4.06 -0.07zm-3.87 11.15c-3.09,-1.06 -4.74,-4.42 -3.67,-7.5 1.07,-3.08 4.44,-4.71 7.53,-3.65l-3.87 11.15zm190.63 -71.29l-186.58 71.22 -4.24 -11.01 186.58 -71.22 8.05 5.51 -3.8 5.51zm-4.24 -11.01c3.05,-1.17 6.48,0.35 7.65,3.39 1.17,3.04 -0.36,6.45 -3.41,7.62l-4.24 -11.01zm-3.8 212.42l-0.01 -206.92 11.85 0 0.01 206.92 -11.85 0zm11.85 0c0,3.26 -2.65,5.9 -5.93,5.9 -3.27,0 -5.93,-2.64 -5.93,-5.9l11.85 0zm-11.85 44.73l-0 -44.73 11.85 0 0 44.73 0 0 -11.85 0zm11.85 0c0,3.26 -2.65,5.9 -5.93,5.9 -3.27,0 -5.93,-2.64 -5.93,-5.9l11.85 0zm-11.85 2.15l0 -2.15 11.85 0 0 2.15 -3.83 5.51 -8.02 -5.51zm11.85 0c0,3.26 -2.65,5.9 -5.93,5.9 -3.27,0 -5.93,-2.64 -5.93,-5.9l11.85 0zm-64.56 15.78l56.54 -21.3 4.2 11.03 -56.54 21.3 -4.2 -11.03zm4.2 11.03c-3.06,1.15 -6.48,-0.38 -7.64,-3.43 -1.16,-3.04 0.38,-6.45 3.44,-7.6l4.2 11.03zm-51.83 6.91l47.63 -17.94 4.2 11.03 -47.63 17.94 -8.02 -5.51 3.83 -5.51zm4.2 11.03c-3.06,1.15 -6.48,-0.38 -7.64,-3.43 -1.16,-3.04 0.38,-6.45 3.44,-7.6l4.2 11.03zm-8.02 60.36l-0 -65.87 11.85 0 0 65.87 0 0 -11.85 0zm11.85 0c0,3.26 -2.65,5.9 -5.93,5.9 -3.27,0 -5.93,-2.64 -5.93,-5.9l11.85 0zm-11.85 50.06l-0 -50.06 11.85 0 0 50.06 -3.8 5.5 -8.05 -5.5zm11.85 0c0,3.26 -2.65,5.9 -5.93,5.9 -3.27,0 -5.93,-2.64 -5.93,-5.9l11.85 0zm50.95 -15.44l-54.75 20.94 -4.25 -11.01 54.75 -20.94 4.06 -0.07 0.19 11.08zm-4.25 -11.01c3.05,-1.17 6.48,0.35 7.66,3.39 1.17,3.04 -0.35,6.45 -3.4,7.62l-4.25 -11.01zm-11.88 -5.55l15.94 5.48 -3.87 11.15 -15.94 -5.48 -3.99 -5.57 7.86 -5.57zm-3.87 11.15c-3.09,-1.06 -4.73,-4.42 -3.67,-7.5 1.07,-3.08 4.44,-4.71 7.54,-3.65l-3.87 11.15zm7.86 -43.6l0 38.03 -11.85 0 -0 -38.03 3.86 -5.53 7.99 5.53zm-11.85 0c0,-3.26 2.65,-5.9 5.93,-5.9 3.27,0 5.93,2.64 5.93,5.9l-11.85 0zm73.36 -18.73l-65.36 24.25 -4.14 -11.05 65.36 -24.25 7.99 5.53 -3.86 5.53zm-4.14 -11.05c3.06,-1.14 6.48,0.41 7.62,3.47 1.14,3.05 -0.42,6.45 -3.48,7.59l-4.14 -11.05zm-3.85 68.4l-0 -62.87 11.85 0 0 62.87 0 0 -11.85 0zm11.85 0c0,3.26 -2.65,5.9 -5.93,5.9 -3.27,0 -5.93,-2.64 -5.93,-5.9l11.85 0zm-11.85 33.4l-0 -33.4 11.85 0 0 33.4 -7.86 5.57 -3.99 -5.57zm11.85 0c0,3.26 -2.65,5.9 -5.93,5.9 -3.27,0 -5.93,-2.64 -5.93,-5.9l11.85 0zm8.07 11.05l-15.94 -5.48 3.87 -11.15 15.94 5.48 0.19 11.08 -4.06 0.07zm3.87 -11.15c3.09,1.06 4.73,4.42 3.67,7.5 -1.07,3.08 -4.44,4.71 -7.54,3.65l3.87 -11.15z"/>
  </g>
  <polygon id="_1_26" class="fil0" points="341.02,728.32 154.4,799.58 154.4,754.57 154.39,624.41 154.39,577.53 275.63,531.73 259.71,526.26 259.71,388.62 204.95,409.58 220.9,415.06 220.9,487.7 154.39,510.81 154.39,492.84 154.38,416.45 154.38,383 138.49,377.54 325.07,306.31 325.08,513.23 325.08,557.96 325.08,560.12 268.54,581.41 220.91,599.36 220.91,665.23 220.92,715.28 275.66,694.34 259.72,688.86 259.72,650.83 325.08,626.58 325.08,689.45 325.09,722.85 "/>
  <g style="clip-path:url(#id62)">
   <g>
    <polygon id="_2_27" class="fil55" style="mask:url(#id63)" points="124.22,306.22 349.14,306.22 349.14,394.34 124.22,394.34 "/>
    <polygon class="fil55" style="mask:url(#id65)" points="124.22,406.96 349.14,406.96 349.14,495.08 124.22,495.08 "/>
    <polygon class="fil55" style="mask:url(#id67)" points="124.22,507.7 349.14,507.7 349.14,595.82 124.22,595.82 "/>
    <polygon class="fil55" style="mask:url(#id69)" points="124.22,608.44 349.14,608.44 349.14,696.56 124.22,696.56 "/>
    <polygon class="fil55" style="mask:url(#id71)" points="124.22,709.18 349.14,709.18 349.14,797.3 124.22,797.3 "/>
   </g>
  </g>
  <path class="fil57" d="M398.04 838.34c-0.44,-0.45 -1.25,-1.05 -2.43,-1.81 -1.18,-0.76 -2.61,-1.49 -4.29,-2.19 -1.68,-0.7 -3.51,-1.32 -5.48,-1.86 -1.97,-0.54 -3.97,-0.81 -6.01,-0.81 -3.56,0 -6.24,0.67 -8.05,1.99 -1.81,1.33 -2.72,3.19 -2.72,5.61 0,1.83 0.57,3.29 1.72,4.35 1.14,1.08 2.86,2 5.15,2.75 2.29,0.76 5.15,1.59 8.58,2.48 4.45,1.06 8.31,2.38 11.58,3.92 3.27,1.56 5.78,3.58 7.53,6.07 1.75,2.51 2.62,5.82 2.62,9.91 0,3.61 -0.67,6.69 -2,9.25 -1.33,2.57 -3.18,4.64 -5.53,6.21 -2.35,1.59 -5.02,2.75 -8.01,3.46 -2.99,0.73 -6.16,1.1 -9.53,1.1 -3.37,0 -6.74,-0.35 -10.11,-1.05 -3.37,-0.7 -6.61,-1.7 -9.72,-3 -3.11,-1.3 -5.97,-2.88 -8.58,-4.72l5.81 -11.34c0.57,0.57 1.59,1.32 3.05,2.24 1.46,0.92 3.24,1.84 5.34,2.77 2.1,0.92 4.39,1.7 6.86,2.34 2.48,0.63 4.99,0.95 7.53,0.95 3.56,0 6.26,-0.6 8.1,-1.79 1.84,-1.19 2.77,-2.89 2.77,-5.09 0,-2.03 -0.73,-3.61 -2.19,-4.75 -1.46,-1.15 -3.5,-2.13 -6.1,-2.99 -2.61,-0.86 -5.69,-1.8 -9.25,-2.8 -4.26,-1.21 -7.82,-2.56 -10.68,-4.04 -2.86,-1.49 -4.99,-3.37 -6.39,-5.66 -1.4,-2.27 -2.1,-5.12 -2.1,-8.55 0,-4.61 1.1,-8.49 3.29,-11.62 2.19,-3.15 5.16,-5.51 8.91,-7.13 3.75,-1.6 7.91,-2.41 12.49,-2.41 3.18,0 6.18,0.35 9.01,1.05 2.83,0.7 5.48,1.62 7.96,2.77 2.48,1.14 4.7,2.38 6.67,3.72l-5.82 10.68z"/>
  <polygon id="_1_28" class="fil57" points="466.67,831.95 445.13,832.14 445.13,888.29 432.07,888.29 432.16,831.95 410.43,832.14 410.52,820.6 466.77,820.6 "/>
  <path id="_2_29" class="fil57" d="M503.85 888.77c-5.4,0 -9.99,-0.91 -13.78,-2.72 -3.78,-1.81 -6.83,-4.31 -9.15,-7.48 -2.32,-3.18 -4.02,-6.79 -5.1,-10.82 -1.08,-4.04 -1.62,-8.25 -1.62,-12.63l0 -34.51 13.16 0 0 34.51c0,2.8 0.27,5.51 0.81,8.15 0.54,2.64 1.44,5.01 2.72,7.1 1.27,2.1 2.95,3.75 5.05,4.96 2.1,1.21 4.7,1.81 7.82,1.81 3.18,0 5.83,-0.62 7.96,-1.86 2.13,-1.24 3.81,-2.91 5.05,-5 1.24,-2.1 2.14,-4.46 2.72,-7.1 0.57,-2.64 0.86,-5.32 0.86,-8.06l0 -34.51 13.06 0 0 34.51c0,4.64 -0.56,8.99 -1.67,13.06 -1.11,4.07 -2.86,7.64 -5.24,10.72 -2.38,3.08 -5.45,5.5 -9.2,7.25 -3.75,1.75 -8.23,2.62 -13.44,2.62z"/>
  <path id="_3" class="fil57" d="M546.66 888.29l0 -67.68 24.6 0c7.37,0 13.54,1.51 18.49,4.53 4.96,3.02 8.67,7.09 11.15,12.2 2.48,5.12 3.72,10.79 3.72,17.02 0,6.86 -1.37,12.84 -4.1,17.92 -2.73,5.08 -6.59,9.02 -11.58,11.82 -4.99,2.8 -10.88,4.19 -17.68,4.19l-24.6 0zm44.71 -33.94c0,-4.39 -0.79,-8.25 -2.38,-11.58 -1.59,-3.34 -3.88,-5.94 -6.86,-7.82 -2.99,-1.88 -6.61,-2.81 -10.87,-2.81l-11.44 0 0 44.61 11.44 0c4.32,0 7.97,-0.97 10.96,-2.91 2.99,-1.94 5.26,-4.61 6.82,-8.01 1.56,-3.4 2.33,-7.23 2.33,-11.49z"/>
  <polygon id="_4" class="fil57" points="614.91,888.29 614.91,820.6 627.97,820.6 628.07,888.29 "/>
  <path id="_5" class="fil57" d="M671.06 888.77c-4.96,0 -9.45,-0.95 -13.49,-2.86 -4.04,-1.91 -7.5,-4.5 -10.39,-7.77 -2.89,-3.27 -5.13,-6.96 -6.72,-11.06 -1.59,-4.1 -2.38,-8.31 -2.38,-12.63 0,-4.51 0.84,-8.82 2.53,-12.92 1.68,-4.1 4,-7.75 6.96,-10.96 2.95,-3.21 6.45,-5.75 10.49,-7.63 4.04,-1.88 8.47,-2.81 13.3,-2.81 4.89,0 9.36,0.98 13.39,2.95 4.04,1.97 7.48,4.61 10.34,7.91 2.86,3.3 5.09,6.99 6.67,11.06 1.59,4.07 2.38,8.26 2.38,12.58 0,4.45 -0.83,8.72 -2.48,12.82 -1.65,4.1 -3.96,7.75 -6.91,10.96 -2.95,3.21 -6.45,5.74 -10.49,7.58 -4.04,1.84 -8.44,2.76 -13.2,2.76zm-19.64 -34.32c0,2.92 0.45,5.75 1.33,8.48 0.89,2.73 2.18,5.16 3.86,7.29 1.68,2.13 3.75,3.81 6.2,5.05 2.45,1.24 5.23,1.86 8.34,1.86 3.18,0 6.01,-0.65 8.48,-1.96 2.48,-1.3 4.54,-3.05 6.2,-5.24 1.65,-2.19 2.91,-4.64 3.77,-7.34 0.86,-2.7 1.29,-5.42 1.29,-8.15 0,-2.92 -0.46,-5.74 -1.38,-8.44 -0.92,-2.7 -2.22,-5.12 -3.91,-7.25 -1.68,-2.13 -3.75,-3.81 -6.2,-5.05 -2.45,-1.24 -5.2,-1.86 -8.25,-1.86 -3.24,0 -6.09,0.65 -8.53,1.95 -2.45,1.3 -4.5,3.04 -6.15,5.2 -1.65,2.16 -2.91,4.57 -3.77,7.24 -0.86,2.67 -1.29,5.4 -1.29,8.2z"/>
  <path id="_6" class="fil57" d="M754.29 838.34c-0.44,-0.45 -1.25,-1.05 -2.43,-1.81 -1.18,-0.76 -2.61,-1.49 -4.29,-2.19 -1.68,-0.7 -3.51,-1.32 -5.48,-1.86 -1.97,-0.54 -3.97,-0.81 -6.01,-0.81 -3.56,0 -6.24,0.67 -8.05,1.99 -1.81,1.33 -2.72,3.19 -2.72,5.61 0,1.83 0.57,3.29 1.72,4.35 1.14,1.08 2.86,2 5.15,2.75 2.29,0.76 5.15,1.59 8.58,2.48 4.45,1.06 8.31,2.38 11.58,3.92 3.27,1.56 5.78,3.58 7.53,6.07 1.75,2.51 2.62,5.82 2.62,9.91 0,3.61 -0.67,6.69 -2,9.25 -1.33,2.57 -3.18,4.64 -5.53,6.21 -2.35,1.59 -5.02,2.75 -8.01,3.46 -2.99,0.73 -6.16,1.1 -9.53,1.1 -3.37,0 -6.74,-0.35 -10.11,-1.05 -3.37,-0.7 -6.61,-1.7 -9.72,-3 -3.11,-1.3 -5.97,-2.88 -8.58,-4.72l5.81 -11.34c0.57,0.57 1.59,1.32 3.05,2.24 1.46,0.92 3.24,1.84 5.34,2.77 2.1,0.92 4.39,1.7 6.86,2.34 2.48,0.63 4.99,0.95 7.53,0.95 3.56,0 6.26,-0.6 8.1,-1.79 1.84,-1.19 2.77,-2.89 2.77,-5.09 0,-2.03 -0.73,-3.61 -2.19,-4.75 -1.46,-1.15 -3.5,-2.13 -6.1,-2.99 -2.61,-0.86 -5.69,-1.8 -9.25,-2.8 -4.26,-1.21 -7.82,-2.56 -10.68,-4.04 -2.86,-1.49 -4.99,-3.37 -6.39,-5.66 -1.4,-2.27 -2.1,-5.12 -2.1,-8.55 0,-4.61 1.1,-8.49 3.29,-11.62 2.19,-3.15 5.16,-5.51 8.91,-7.13 3.75,-1.6 7.91,-2.41 12.49,-2.41 3.18,0 6.18,0.35 9.01,1.05 2.83,0.7 5.48,1.62 7.96,2.77 2.48,1.14 4.7,2.38 6.67,3.72l-5.82 10.68z"/>
 </g>
</svg>
